G04 #@! TF.GenerationSoftware,KiCad,Pcbnew,(5.1.0)-1*
G04 #@! TF.CreationDate,2019-09-25T15:25:55+02:00*
G04 #@! TF.ProjectId,atmega328P-flasher,61746d65-6761-4333-9238-502d666c6173,rev?*
G04 #@! TF.SameCoordinates,Original*
G04 #@! TF.FileFunction,Legend,Top*
G04 #@! TF.FilePolarity,Positive*
%FSLAX46Y46*%
G04 Gerber Fmt 4.6, Leading zero omitted, Abs format (unit mm)*
G04 Created by KiCad (PCBNEW (5.1.0)-1) date 2019-09-25 15:25:55*
%MOMM*%
%LPD*%
G04 APERTURE LIST*
%ADD10C,0.100000*%
%ADD11C,0.150000*%
%ADD12C,0.120000*%
G04 APERTURE END LIST*
D10*
X127994857Y-106978571D02*
X127994857Y-106318571D01*
X128214857Y-106790000D01*
X128434857Y-106318571D01*
X128434857Y-106978571D01*
X128874857Y-106318571D02*
X129000571Y-106318571D01*
X129063428Y-106350000D01*
X129126285Y-106412857D01*
X129157714Y-106538571D01*
X129157714Y-106758571D01*
X129126285Y-106884285D01*
X129063428Y-106947142D01*
X129000571Y-106978571D01*
X128874857Y-106978571D01*
X128812000Y-106947142D01*
X128749142Y-106884285D01*
X128717714Y-106758571D01*
X128717714Y-106538571D01*
X128749142Y-106412857D01*
X128812000Y-106350000D01*
X128874857Y-106318571D01*
X129409142Y-106947142D02*
X129503428Y-106978571D01*
X129660571Y-106978571D01*
X129723428Y-106947142D01*
X129754857Y-106915714D01*
X129786285Y-106852857D01*
X129786285Y-106790000D01*
X129754857Y-106727142D01*
X129723428Y-106695714D01*
X129660571Y-106664285D01*
X129534857Y-106632857D01*
X129472000Y-106601428D01*
X129440571Y-106570000D01*
X129409142Y-106507142D01*
X129409142Y-106444285D01*
X129440571Y-106381428D01*
X129472000Y-106350000D01*
X129534857Y-106318571D01*
X129692000Y-106318571D01*
X129786285Y-106350000D01*
X130069142Y-106978571D02*
X130069142Y-106318571D01*
X130480000Y-73146857D02*
X130448571Y-73209714D01*
X130448571Y-73304000D01*
X130480000Y-73398285D01*
X130542857Y-73461142D01*
X130605714Y-73492571D01*
X130731428Y-73524000D01*
X130825714Y-73524000D01*
X130951428Y-73492571D01*
X131014285Y-73461142D01*
X131077142Y-73398285D01*
X131108571Y-73304000D01*
X131108571Y-73241142D01*
X131077142Y-73146857D01*
X131045714Y-73115428D01*
X130825714Y-73115428D01*
X130825714Y-73241142D01*
X131108571Y-72832571D02*
X130448571Y-72832571D01*
X131108571Y-72455428D01*
X130448571Y-72455428D01*
X131108571Y-72141142D02*
X130448571Y-72141142D01*
X130448571Y-71984000D01*
X130480000Y-71889714D01*
X130542857Y-71826857D01*
X130605714Y-71795428D01*
X130731428Y-71764000D01*
X130825714Y-71764000D01*
X130951428Y-71795428D01*
X131014285Y-71826857D01*
X131077142Y-71889714D01*
X131108571Y-71984000D01*
X131108571Y-72141142D01*
X128317142Y-73461142D02*
X128317142Y-72958285D01*
X128568571Y-73209714D02*
X128065714Y-73209714D01*
X127908571Y-72329714D02*
X127908571Y-72644000D01*
X128222857Y-72675428D01*
X128191428Y-72644000D01*
X128160000Y-72581142D01*
X128160000Y-72424000D01*
X128191428Y-72361142D01*
X128222857Y-72329714D01*
X128285714Y-72298285D01*
X128442857Y-72298285D01*
X128505714Y-72329714D01*
X128537142Y-72361142D01*
X128568571Y-72424000D01*
X128568571Y-72581142D01*
X128537142Y-72644000D01*
X128505714Y-72675428D01*
X128128571Y-72078285D02*
X128568571Y-71921142D01*
X128128571Y-71764000D01*
X120154285Y-113582571D02*
X120154285Y-112922571D01*
X120311428Y-112922571D01*
X120405714Y-112954000D01*
X120468571Y-113016857D01*
X120500000Y-113079714D01*
X120531428Y-113205428D01*
X120531428Y-113299714D01*
X120500000Y-113425428D01*
X120468571Y-113488285D01*
X120405714Y-113551142D01*
X120311428Y-113582571D01*
X120154285Y-113582571D01*
X120814285Y-113582571D02*
X120814285Y-113142571D01*
X120814285Y-113268285D02*
X120845714Y-113205428D01*
X120877142Y-113174000D01*
X120940000Y-113142571D01*
X121002857Y-113142571D01*
X122102857Y-113519714D02*
X122071428Y-113551142D01*
X121977142Y-113582571D01*
X121914285Y-113582571D01*
X121820000Y-113551142D01*
X121757142Y-113488285D01*
X121725714Y-113425428D01*
X121694285Y-113299714D01*
X121694285Y-113205428D01*
X121725714Y-113079714D01*
X121757142Y-113016857D01*
X121820000Y-112954000D01*
X121914285Y-112922571D01*
X121977142Y-112922571D01*
X122071428Y-112954000D01*
X122102857Y-112985428D01*
X122354285Y-113394000D02*
X122668571Y-113394000D01*
X122291428Y-113582571D02*
X122511428Y-112922571D01*
X122731428Y-113582571D01*
X122951428Y-113582571D02*
X122951428Y-112922571D01*
X123108571Y-112922571D01*
X123202857Y-112954000D01*
X123265714Y-113016857D01*
X123297142Y-113079714D01*
X123328571Y-113205428D01*
X123328571Y-113299714D01*
X123297142Y-113425428D01*
X123265714Y-113488285D01*
X123202857Y-113551142D01*
X123108571Y-113582571D01*
X122951428Y-113582571D01*
X123611428Y-113582571D02*
X123611428Y-112922571D01*
X124302857Y-113519714D02*
X124271428Y-113551142D01*
X124177142Y-113582571D01*
X124114285Y-113582571D01*
X124020000Y-113551142D01*
X123957142Y-113488285D01*
X123925714Y-113425428D01*
X123894285Y-113299714D01*
X123894285Y-113205428D01*
X123925714Y-113079714D01*
X123957142Y-113016857D01*
X124020000Y-112954000D01*
X124114285Y-112922571D01*
X124177142Y-112922571D01*
X124271428Y-112954000D01*
X124302857Y-112985428D01*
X125088571Y-113582571D02*
X125088571Y-112922571D01*
X125340000Y-112922571D01*
X125402857Y-112954000D01*
X125434285Y-112985428D01*
X125465714Y-113048285D01*
X125465714Y-113142571D01*
X125434285Y-113205428D01*
X125402857Y-113236857D01*
X125340000Y-113268285D01*
X125088571Y-113268285D01*
X125748571Y-113582571D02*
X125748571Y-112922571D01*
X126031428Y-113582571D02*
X126031428Y-113236857D01*
X126000000Y-113174000D01*
X125937142Y-113142571D01*
X125842857Y-113142571D01*
X125780000Y-113174000D01*
X125748571Y-113205428D01*
X126345714Y-113582571D02*
X126345714Y-113142571D01*
X126345714Y-112922571D02*
X126314285Y-112954000D01*
X126345714Y-112985428D01*
X126377142Y-112954000D01*
X126345714Y-112922571D01*
X126345714Y-112985428D01*
X126754285Y-113582571D02*
X126691428Y-113551142D01*
X126660000Y-113488285D01*
X126660000Y-112922571D01*
X127005714Y-113582571D02*
X127005714Y-113142571D01*
X127005714Y-112922571D02*
X126974285Y-112954000D01*
X127005714Y-112985428D01*
X127037142Y-112954000D01*
X127005714Y-112922571D01*
X127005714Y-112985428D01*
X127320000Y-113142571D02*
X127320000Y-113802571D01*
X127320000Y-113174000D02*
X127382857Y-113142571D01*
X127508571Y-113142571D01*
X127571428Y-113174000D01*
X127602857Y-113205428D01*
X127634285Y-113268285D01*
X127634285Y-113456857D01*
X127602857Y-113519714D01*
X127571428Y-113551142D01*
X127508571Y-113582571D01*
X127382857Y-113582571D01*
X127320000Y-113551142D01*
X127917142Y-113142571D02*
X127917142Y-113802571D01*
X127917142Y-113174000D02*
X127980000Y-113142571D01*
X128105714Y-113142571D01*
X128168571Y-113174000D01*
X128200000Y-113205428D01*
X128231428Y-113268285D01*
X128231428Y-113456857D01*
X128200000Y-113519714D01*
X128168571Y-113551142D01*
X128105714Y-113582571D01*
X127980000Y-113582571D01*
X127917142Y-113551142D01*
X128765714Y-113551142D02*
X128702857Y-113582571D01*
X128577142Y-113582571D01*
X128514285Y-113551142D01*
X128482857Y-113488285D01*
X128482857Y-113236857D01*
X128514285Y-113174000D01*
X128577142Y-113142571D01*
X128702857Y-113142571D01*
X128765714Y-113174000D01*
X128797142Y-113236857D01*
X128797142Y-113299714D01*
X128482857Y-113362571D01*
X123488571Y-73924428D02*
X122828571Y-73924428D01*
X123300000Y-73704428D01*
X122828571Y-73484428D01*
X123488571Y-73484428D01*
X123488571Y-73170142D02*
X122828571Y-73170142D01*
X123457142Y-72887285D02*
X123488571Y-72793000D01*
X123488571Y-72635857D01*
X123457142Y-72573000D01*
X123425714Y-72541571D01*
X123362857Y-72510142D01*
X123300000Y-72510142D01*
X123237142Y-72541571D01*
X123205714Y-72573000D01*
X123174285Y-72635857D01*
X123142857Y-72761571D01*
X123111428Y-72824428D01*
X123080000Y-72855857D01*
X123017142Y-72887285D01*
X122954285Y-72887285D01*
X122891428Y-72855857D01*
X122860000Y-72824428D01*
X122828571Y-72761571D01*
X122828571Y-72604428D01*
X122860000Y-72510142D01*
X122828571Y-72101571D02*
X122828571Y-71975857D01*
X122860000Y-71913000D01*
X122922857Y-71850142D01*
X123048571Y-71818714D01*
X123268571Y-71818714D01*
X123394285Y-71850142D01*
X123457142Y-71913000D01*
X123488571Y-71975857D01*
X123488571Y-72101571D01*
X123457142Y-72164428D01*
X123394285Y-72227285D01*
X123268571Y-72258714D01*
X123048571Y-72258714D01*
X122922857Y-72227285D01*
X122860000Y-72164428D01*
X122828571Y-72101571D01*
X128183428Y-101867142D02*
X128277714Y-101898571D01*
X128434857Y-101898571D01*
X128497714Y-101867142D01*
X128529142Y-101835714D01*
X128560571Y-101772857D01*
X128560571Y-101710000D01*
X128529142Y-101647142D01*
X128497714Y-101615714D01*
X128434857Y-101584285D01*
X128309142Y-101552857D01*
X128246285Y-101521428D01*
X128214857Y-101490000D01*
X128183428Y-101427142D01*
X128183428Y-101364285D01*
X128214857Y-101301428D01*
X128246285Y-101270000D01*
X128309142Y-101238571D01*
X128466285Y-101238571D01*
X128560571Y-101270000D01*
X129220571Y-101835714D02*
X129189142Y-101867142D01*
X129094857Y-101898571D01*
X129032000Y-101898571D01*
X128937714Y-101867142D01*
X128874857Y-101804285D01*
X128843428Y-101741428D01*
X128812000Y-101615714D01*
X128812000Y-101521428D01*
X128843428Y-101395714D01*
X128874857Y-101332857D01*
X128937714Y-101270000D01*
X129032000Y-101238571D01*
X129094857Y-101238571D01*
X129189142Y-101270000D01*
X129220571Y-101301428D01*
X129503428Y-101898571D02*
X129503428Y-101238571D01*
X129880571Y-101898571D02*
X129597714Y-101521428D01*
X129880571Y-101238571D02*
X129503428Y-101615714D01*
X120917142Y-73492571D02*
X120948571Y-73398285D01*
X120948571Y-73241142D01*
X120917142Y-73178285D01*
X120885714Y-73146857D01*
X120822857Y-73115428D01*
X120760000Y-73115428D01*
X120697142Y-73146857D01*
X120665714Y-73178285D01*
X120634285Y-73241142D01*
X120602857Y-73366857D01*
X120571428Y-73429714D01*
X120540000Y-73461142D01*
X120477142Y-73492571D01*
X120414285Y-73492571D01*
X120351428Y-73461142D01*
X120320000Y-73429714D01*
X120288571Y-73366857D01*
X120288571Y-73209714D01*
X120320000Y-73115428D01*
X120885714Y-72455428D02*
X120917142Y-72486857D01*
X120948571Y-72581142D01*
X120948571Y-72644000D01*
X120917142Y-72738285D01*
X120854285Y-72801142D01*
X120791428Y-72832571D01*
X120665714Y-72864000D01*
X120571428Y-72864000D01*
X120445714Y-72832571D01*
X120382857Y-72801142D01*
X120320000Y-72738285D01*
X120288571Y-72644000D01*
X120288571Y-72581142D01*
X120320000Y-72486857D01*
X120351428Y-72455428D01*
X120948571Y-72172571D02*
X120288571Y-72172571D01*
X120948571Y-71795428D02*
X120571428Y-72078285D01*
X120288571Y-71795428D02*
X120665714Y-72172571D01*
X127751571Y-104438571D02*
X127751571Y-103778571D01*
X127971571Y-104250000D01*
X128191571Y-103778571D01*
X128191571Y-104438571D01*
X128505857Y-104438571D02*
X128505857Y-103778571D01*
X128788714Y-104407142D02*
X128883000Y-104438571D01*
X129040142Y-104438571D01*
X129103000Y-104407142D01*
X129134428Y-104375714D01*
X129165857Y-104312857D01*
X129165857Y-104250000D01*
X129134428Y-104187142D01*
X129103000Y-104155714D01*
X129040142Y-104124285D01*
X128914428Y-104092857D01*
X128851571Y-104061428D01*
X128820142Y-104030000D01*
X128788714Y-103967142D01*
X128788714Y-103904285D01*
X128820142Y-103841428D01*
X128851571Y-103810000D01*
X128914428Y-103778571D01*
X129071571Y-103778571D01*
X129165857Y-103810000D01*
X129574428Y-103778571D02*
X129700142Y-103778571D01*
X129763000Y-103810000D01*
X129825857Y-103872857D01*
X129857285Y-103998571D01*
X129857285Y-104218571D01*
X129825857Y-104344285D01*
X129763000Y-104407142D01*
X129700142Y-104438571D01*
X129574428Y-104438571D01*
X129511571Y-104407142D01*
X129448714Y-104344285D01*
X129417285Y-104218571D01*
X129417285Y-103998571D01*
X129448714Y-103872857D01*
X129511571Y-103810000D01*
X129574428Y-103778571D01*
X126028571Y-73935142D02*
X125368571Y-73935142D01*
X125840000Y-73715142D01*
X125368571Y-73495142D01*
X126028571Y-73495142D01*
X125368571Y-73055142D02*
X125368571Y-72929428D01*
X125400000Y-72866571D01*
X125462857Y-72803714D01*
X125588571Y-72772285D01*
X125808571Y-72772285D01*
X125934285Y-72803714D01*
X125997142Y-72866571D01*
X126028571Y-72929428D01*
X126028571Y-73055142D01*
X125997142Y-73118000D01*
X125934285Y-73180857D01*
X125808571Y-73212285D01*
X125588571Y-73212285D01*
X125462857Y-73180857D01*
X125400000Y-73118000D01*
X125368571Y-73055142D01*
X125997142Y-72520857D02*
X126028571Y-72426571D01*
X126028571Y-72269428D01*
X125997142Y-72206571D01*
X125965714Y-72175142D01*
X125902857Y-72143714D01*
X125840000Y-72143714D01*
X125777142Y-72175142D01*
X125745714Y-72206571D01*
X125714285Y-72269428D01*
X125682857Y-72395142D01*
X125651428Y-72458000D01*
X125620000Y-72489428D01*
X125557142Y-72520857D01*
X125494285Y-72520857D01*
X125431428Y-72489428D01*
X125400000Y-72458000D01*
X125368571Y-72395142D01*
X125368571Y-72238000D01*
X125400000Y-72143714D01*
X126028571Y-71860857D02*
X125368571Y-71860857D01*
X130307142Y-66980000D02*
X130244285Y-66948571D01*
X130150000Y-66948571D01*
X130055714Y-66980000D01*
X129992857Y-67042857D01*
X129961428Y-67105714D01*
X129930000Y-67231428D01*
X129930000Y-67325714D01*
X129961428Y-67451428D01*
X129992857Y-67514285D01*
X130055714Y-67577142D01*
X130150000Y-67608571D01*
X130212857Y-67608571D01*
X130307142Y-67577142D01*
X130338571Y-67545714D01*
X130338571Y-67325714D01*
X130212857Y-67325714D01*
X130621428Y-67608571D02*
X130621428Y-66948571D01*
X130998571Y-67608571D01*
X130998571Y-66948571D01*
X131312857Y-67608571D02*
X131312857Y-66948571D01*
X131470000Y-66948571D01*
X131564285Y-66980000D01*
X131627142Y-67042857D01*
X131658571Y-67105714D01*
X131690000Y-67231428D01*
X131690000Y-67325714D01*
X131658571Y-67451428D01*
X131627142Y-67514285D01*
X131564285Y-67577142D01*
X131470000Y-67608571D01*
X131312857Y-67608571D01*
X127452857Y-67357142D02*
X127955714Y-67357142D01*
X127704285Y-67608571D02*
X127704285Y-67105714D01*
X128584285Y-66948571D02*
X128270000Y-66948571D01*
X128238571Y-67262857D01*
X128270000Y-67231428D01*
X128332857Y-67200000D01*
X128490000Y-67200000D01*
X128552857Y-67231428D01*
X128584285Y-67262857D01*
X128615714Y-67325714D01*
X128615714Y-67482857D01*
X128584285Y-67545714D01*
X128552857Y-67577142D01*
X128490000Y-67608571D01*
X128332857Y-67608571D01*
X128270000Y-67577142D01*
X128238571Y-67545714D01*
X128835714Y-67168571D02*
X128992857Y-67608571D01*
X129150000Y-67168571D01*
X125604285Y-67608571D02*
X125227142Y-67608571D01*
X125415714Y-67608571D02*
X125415714Y-66948571D01*
X125352857Y-67042857D01*
X125290000Y-67105714D01*
X125227142Y-67137142D01*
X125824285Y-66948571D02*
X126264285Y-66948571D01*
X125981428Y-67608571D01*
X123064285Y-67608571D02*
X122687142Y-67608571D01*
X122875714Y-67608571D02*
X122875714Y-66948571D01*
X122812857Y-67042857D01*
X122750000Y-67105714D01*
X122687142Y-67137142D01*
X123441428Y-67231428D02*
X123378571Y-67200000D01*
X123347142Y-67168571D01*
X123315714Y-67105714D01*
X123315714Y-67074285D01*
X123347142Y-67011428D01*
X123378571Y-66980000D01*
X123441428Y-66948571D01*
X123567142Y-66948571D01*
X123630000Y-66980000D01*
X123661428Y-67011428D01*
X123692857Y-67074285D01*
X123692857Y-67105714D01*
X123661428Y-67168571D01*
X123630000Y-67200000D01*
X123567142Y-67231428D01*
X123441428Y-67231428D01*
X123378571Y-67262857D01*
X123347142Y-67294285D01*
X123315714Y-67357142D01*
X123315714Y-67482857D01*
X123347142Y-67545714D01*
X123378571Y-67577142D01*
X123441428Y-67608571D01*
X123567142Y-67608571D01*
X123630000Y-67577142D01*
X123661428Y-67545714D01*
X123692857Y-67482857D01*
X123692857Y-67357142D01*
X123661428Y-67294285D01*
X123630000Y-67262857D01*
X123567142Y-67231428D01*
X117824285Y-67608571D02*
X117824285Y-66948571D01*
X118075714Y-66948571D01*
X118138571Y-66980000D01*
X118170000Y-67011428D01*
X118201428Y-67074285D01*
X118201428Y-67168571D01*
X118170000Y-67231428D01*
X118138571Y-67262857D01*
X118075714Y-67294285D01*
X117824285Y-67294285D01*
X118484285Y-67608571D02*
X118484285Y-66948571D01*
X118798571Y-67608571D02*
X118798571Y-66948571D01*
X119175714Y-67608571D01*
X119175714Y-66948571D01*
X120338571Y-67608571D02*
X119961428Y-67608571D01*
X120150000Y-67608571D02*
X120150000Y-66948571D01*
X120087142Y-67042857D01*
X120024285Y-67105714D01*
X119961428Y-67137142D01*
X120652857Y-67608571D02*
X120778571Y-67608571D01*
X120841428Y-67577142D01*
X120872857Y-67545714D01*
X120935714Y-67451428D01*
X120967142Y-67325714D01*
X120967142Y-67074285D01*
X120935714Y-67011428D01*
X120904285Y-66980000D01*
X120841428Y-66948571D01*
X120715714Y-66948571D01*
X120652857Y-66980000D01*
X120621428Y-67011428D01*
X120590000Y-67074285D01*
X120590000Y-67231428D01*
X120621428Y-67294285D01*
X120652857Y-67325714D01*
X120715714Y-67357142D01*
X120841428Y-67357142D01*
X120904285Y-67325714D01*
X120935714Y-67294285D01*
X120967142Y-67231428D01*
D11*
X119546666Y-110718857D02*
X119546666Y-110242666D01*
X119832380Y-110814095D02*
X118832380Y-110480761D01*
X119832380Y-110147428D01*
X118832380Y-109956952D02*
X118832380Y-109385523D01*
X119832380Y-109671238D02*
X118832380Y-109671238D01*
X119832380Y-109052190D02*
X118832380Y-109052190D01*
X119546666Y-108718857D01*
X118832380Y-108385523D01*
X119832380Y-108385523D01*
X119308571Y-107909333D02*
X119308571Y-107576000D01*
X119832380Y-107433142D02*
X119832380Y-107909333D01*
X118832380Y-107909333D01*
X118832380Y-107433142D01*
X118880000Y-106480761D02*
X118832380Y-106576000D01*
X118832380Y-106718857D01*
X118880000Y-106861714D01*
X118975238Y-106956952D01*
X119070476Y-107004571D01*
X119260952Y-107052190D01*
X119403809Y-107052190D01*
X119594285Y-107004571D01*
X119689523Y-106956952D01*
X119784761Y-106861714D01*
X119832380Y-106718857D01*
X119832380Y-106623619D01*
X119784761Y-106480761D01*
X119737142Y-106433142D01*
X119403809Y-106433142D01*
X119403809Y-106623619D01*
X119546666Y-106052190D02*
X119546666Y-105576000D01*
X119832380Y-106147428D02*
X118832380Y-105814095D01*
X119832380Y-105480761D01*
X118832380Y-105242666D02*
X118832380Y-104623619D01*
X119213333Y-104956952D01*
X119213333Y-104814095D01*
X119260952Y-104718857D01*
X119308571Y-104671238D01*
X119403809Y-104623619D01*
X119641904Y-104623619D01*
X119737142Y-104671238D01*
X119784761Y-104718857D01*
X119832380Y-104814095D01*
X119832380Y-105099809D01*
X119784761Y-105195047D01*
X119737142Y-105242666D01*
X118927619Y-104242666D02*
X118880000Y-104195047D01*
X118832380Y-104099809D01*
X118832380Y-103861714D01*
X118880000Y-103766476D01*
X118927619Y-103718857D01*
X119022857Y-103671238D01*
X119118095Y-103671238D01*
X119260952Y-103718857D01*
X119832380Y-104290285D01*
X119832380Y-103671238D01*
X119260952Y-103099809D02*
X119213333Y-103195047D01*
X119165714Y-103242666D01*
X119070476Y-103290285D01*
X119022857Y-103290285D01*
X118927619Y-103242666D01*
X118880000Y-103195047D01*
X118832380Y-103099809D01*
X118832380Y-102909333D01*
X118880000Y-102814095D01*
X118927619Y-102766476D01*
X119022857Y-102718857D01*
X119070476Y-102718857D01*
X119165714Y-102766476D01*
X119213333Y-102814095D01*
X119260952Y-102909333D01*
X119260952Y-103099809D01*
X119308571Y-103195047D01*
X119356190Y-103242666D01*
X119451428Y-103290285D01*
X119641904Y-103290285D01*
X119737142Y-103242666D01*
X119784761Y-103195047D01*
X119832380Y-103099809D01*
X119832380Y-102909333D01*
X119784761Y-102814095D01*
X119737142Y-102766476D01*
X119641904Y-102718857D01*
X119451428Y-102718857D01*
X119356190Y-102766476D01*
X119308571Y-102814095D01*
X119260952Y-102909333D01*
X119832380Y-102290285D02*
X118832380Y-102290285D01*
X118832380Y-101909333D01*
X118880000Y-101814095D01*
X118927619Y-101766476D01*
X119022857Y-101718857D01*
X119165714Y-101718857D01*
X119260952Y-101766476D01*
X119308571Y-101814095D01*
X119356190Y-101909333D01*
X119356190Y-102290285D01*
X119451428Y-101290285D02*
X119451428Y-100528380D01*
X119308571Y-99718857D02*
X119356190Y-99576000D01*
X119403809Y-99528380D01*
X119499047Y-99480761D01*
X119641904Y-99480761D01*
X119737142Y-99528380D01*
X119784761Y-99576000D01*
X119832380Y-99671238D01*
X119832380Y-100052190D01*
X118832380Y-100052190D01*
X118832380Y-99718857D01*
X118880000Y-99623619D01*
X118927619Y-99576000D01*
X119022857Y-99528380D01*
X119118095Y-99528380D01*
X119213333Y-99576000D01*
X119260952Y-99623619D01*
X119308571Y-99718857D01*
X119308571Y-100052190D01*
X118832380Y-98861714D02*
X118832380Y-98671238D01*
X118880000Y-98576000D01*
X118975238Y-98480761D01*
X119165714Y-98433142D01*
X119499047Y-98433142D01*
X119689523Y-98480761D01*
X119784761Y-98576000D01*
X119832380Y-98671238D01*
X119832380Y-98861714D01*
X119784761Y-98956952D01*
X119689523Y-99052190D01*
X119499047Y-99099809D01*
X119165714Y-99099809D01*
X118975238Y-99052190D01*
X118880000Y-98956952D01*
X118832380Y-98861714D01*
X118832380Y-97814095D02*
X118832380Y-97623619D01*
X118880000Y-97528380D01*
X118975238Y-97433142D01*
X119165714Y-97385523D01*
X119499047Y-97385523D01*
X119689523Y-97433142D01*
X119784761Y-97528380D01*
X119832380Y-97623619D01*
X119832380Y-97814095D01*
X119784761Y-97909333D01*
X119689523Y-98004571D01*
X119499047Y-98052190D01*
X119165714Y-98052190D01*
X118975238Y-98004571D01*
X118880000Y-97909333D01*
X118832380Y-97814095D01*
X118832380Y-97099809D02*
X118832380Y-96528380D01*
X119832380Y-96814095D02*
X118832380Y-96814095D01*
X119927619Y-96433142D02*
X119927619Y-95671238D01*
X119308571Y-95099809D02*
X119308571Y-95433142D01*
X119832380Y-95433142D02*
X118832380Y-95433142D01*
X118832380Y-94956952D01*
X119832380Y-94099809D02*
X119832380Y-94576000D01*
X118832380Y-94576000D01*
X119546666Y-93814095D02*
X119546666Y-93337904D01*
X119832380Y-93909333D02*
X118832380Y-93576000D01*
X119832380Y-93242666D01*
X119784761Y-92956952D02*
X119832380Y-92814095D01*
X119832380Y-92576000D01*
X119784761Y-92480761D01*
X119737142Y-92433142D01*
X119641904Y-92385523D01*
X119546666Y-92385523D01*
X119451428Y-92433142D01*
X119403809Y-92480761D01*
X119356190Y-92576000D01*
X119308571Y-92766476D01*
X119260952Y-92861714D01*
X119213333Y-92909333D01*
X119118095Y-92956952D01*
X119022857Y-92956952D01*
X118927619Y-92909333D01*
X118880000Y-92861714D01*
X118832380Y-92766476D01*
X118832380Y-92528380D01*
X118880000Y-92385523D01*
X119832380Y-91956952D02*
X118832380Y-91956952D01*
X119308571Y-91956952D02*
X119308571Y-91385523D01*
X119832380Y-91385523D02*
X118832380Y-91385523D01*
X119308571Y-90909333D02*
X119308571Y-90576000D01*
X119832380Y-90433142D02*
X119832380Y-90909333D01*
X118832380Y-90909333D01*
X118832380Y-90433142D01*
X119832380Y-89433142D02*
X119356190Y-89766476D01*
X119832380Y-90004571D02*
X118832380Y-90004571D01*
X118832380Y-89623619D01*
X118880000Y-89528380D01*
X118927619Y-89480761D01*
X119022857Y-89433142D01*
X119165714Y-89433142D01*
X119260952Y-89480761D01*
X119308571Y-89528380D01*
X119356190Y-89623619D01*
X119356190Y-90004571D01*
X132588095Y-75747619D02*
X132635714Y-75700000D01*
X132730952Y-75652380D01*
X132969047Y-75652380D01*
X133064285Y-75700000D01*
X133111904Y-75747619D01*
X133159523Y-75842857D01*
X133159523Y-75938095D01*
X133111904Y-76080952D01*
X132540476Y-76652380D01*
X133159523Y-76652380D01*
X133730952Y-76080952D02*
X133635714Y-76033333D01*
X133588095Y-75985714D01*
X133540476Y-75890476D01*
X133540476Y-75842857D01*
X133588095Y-75747619D01*
X133635714Y-75700000D01*
X133730952Y-75652380D01*
X133921428Y-75652380D01*
X134016666Y-75700000D01*
X134064285Y-75747619D01*
X134111904Y-75842857D01*
X134111904Y-75890476D01*
X134064285Y-75985714D01*
X134016666Y-76033333D01*
X133921428Y-76080952D01*
X133730952Y-76080952D01*
X133635714Y-76128571D01*
X133588095Y-76176190D01*
X133540476Y-76271428D01*
X133540476Y-76461904D01*
X133588095Y-76557142D01*
X133635714Y-76604761D01*
X133730952Y-76652380D01*
X133921428Y-76652380D01*
X134016666Y-76604761D01*
X134064285Y-76557142D01*
X134111904Y-76461904D01*
X134111904Y-76271428D01*
X134064285Y-76176190D01*
X134016666Y-76128571D01*
X133921428Y-76080952D01*
X133159523Y-114752380D02*
X132588095Y-114752380D01*
X132873809Y-114752380D02*
X132873809Y-113752380D01*
X132778571Y-113895238D01*
X132683333Y-113990476D01*
X132588095Y-114038095D01*
X134064285Y-113752380D02*
X133588095Y-113752380D01*
X133540476Y-114228571D01*
X133588095Y-114180952D01*
X133683333Y-114133333D01*
X133921428Y-114133333D01*
X134016666Y-114180952D01*
X134064285Y-114228571D01*
X134111904Y-114323809D01*
X134111904Y-114561904D01*
X134064285Y-114657142D01*
X134016666Y-114704761D01*
X133921428Y-114752380D01*
X133683333Y-114752380D01*
X133588095Y-114704761D01*
X133540476Y-114657142D01*
X115379523Y-114752380D02*
X114808095Y-114752380D01*
X115093809Y-114752380D02*
X115093809Y-113752380D01*
X114998571Y-113895238D01*
X114903333Y-113990476D01*
X114808095Y-114038095D01*
X116236666Y-114085714D02*
X116236666Y-114752380D01*
X115998571Y-113704761D02*
X115760476Y-114419047D01*
X116379523Y-114419047D01*
X115855714Y-76652380D02*
X115284285Y-76652380D01*
X115570000Y-76652380D02*
X115570000Y-75652380D01*
X115474761Y-75795238D01*
X115379523Y-75890476D01*
X115284285Y-75938095D01*
D12*
X122690000Y-110070000D02*
X123690000Y-110070000D01*
X123690000Y-108370000D02*
X122690000Y-108370000D01*
X122690000Y-94830000D02*
X123690000Y-94830000D01*
X123690000Y-93130000D02*
X122690000Y-93130000D01*
X115510000Y-77410000D02*
X116840000Y-77410000D01*
X115510000Y-78740000D02*
X115510000Y-77410000D01*
X118170000Y-80010000D02*
X115510000Y-80010000D01*
X118170000Y-113090000D02*
X118170000Y-80010000D01*
X115510000Y-113090000D02*
X118170000Y-113090000D01*
X115510000Y-80010000D02*
X115510000Y-113090000D01*
X119320000Y-71180000D02*
X119320000Y-69850000D01*
X120650000Y-71180000D02*
X119320000Y-71180000D01*
X121920000Y-68520000D02*
X121920000Y-71180000D01*
X132140000Y-68520000D02*
X121920000Y-68520000D01*
X132140000Y-71180000D02*
X132140000Y-68520000D01*
X121920000Y-71180000D02*
X132140000Y-71180000D01*
X119770000Y-85690000D02*
X119770000Y-84490000D01*
X121530000Y-84490000D02*
X121530000Y-85690000D01*
X125715000Y-98500000D02*
G75*
G03X120665000Y-98500000I-2525000J0D01*
G01*
X125715000Y-104900000D02*
G75*
G02X120665000Y-104900000I-2525000J0D01*
G01*
X125715000Y-104900000D02*
X125715000Y-98500000D01*
X120665000Y-104900000D02*
X120665000Y-98500000D01*
X130750000Y-77410000D02*
X132080000Y-77410000D01*
X130750000Y-78740000D02*
X130750000Y-77410000D01*
X133410000Y-80010000D02*
X130750000Y-80010000D01*
X133410000Y-113090000D02*
X133410000Y-80010000D01*
X130750000Y-113090000D02*
X133410000Y-113090000D01*
X130750000Y-80010000D02*
X130750000Y-113090000D01*
D11*
X126325333Y-109577142D02*
X126277714Y-109624761D01*
X126134857Y-109672380D01*
X126039619Y-109672380D01*
X125896761Y-109624761D01*
X125801523Y-109529523D01*
X125753904Y-109434285D01*
X125706285Y-109243809D01*
X125706285Y-109100952D01*
X125753904Y-108910476D01*
X125801523Y-108815238D01*
X125896761Y-108720000D01*
X126039619Y-108672380D01*
X126134857Y-108672380D01*
X126277714Y-108720000D01*
X126325333Y-108767619D01*
X127277714Y-109672380D02*
X126706285Y-109672380D01*
X126992000Y-109672380D02*
X126992000Y-108672380D01*
X126896761Y-108815238D01*
X126801523Y-108910476D01*
X126706285Y-108958095D01*
D10*
X122105714Y-110671428D02*
X122137142Y-110640000D01*
X122200000Y-110608571D01*
X122357142Y-110608571D01*
X122420000Y-110640000D01*
X122451428Y-110671428D01*
X122482857Y-110734285D01*
X122482857Y-110797142D01*
X122451428Y-110891428D01*
X122074285Y-111268571D01*
X122482857Y-111268571D01*
X122734285Y-110671428D02*
X122765714Y-110640000D01*
X122828571Y-110608571D01*
X122985714Y-110608571D01*
X123048571Y-110640000D01*
X123080000Y-110671428D01*
X123111428Y-110734285D01*
X123111428Y-110797142D01*
X123080000Y-110891428D01*
X122702857Y-111268571D01*
X123111428Y-111268571D01*
X123394285Y-110828571D02*
X123394285Y-111488571D01*
X123394285Y-110860000D02*
X123457142Y-110828571D01*
X123582857Y-110828571D01*
X123645714Y-110860000D01*
X123677142Y-110891428D01*
X123708571Y-110954285D01*
X123708571Y-111142857D01*
X123677142Y-111205714D01*
X123645714Y-111237142D01*
X123582857Y-111268571D01*
X123457142Y-111268571D01*
X123394285Y-111237142D01*
X124211428Y-110922857D02*
X123991428Y-110922857D01*
X123991428Y-111268571D02*
X123991428Y-110608571D01*
X124305714Y-110608571D01*
D11*
X126325333Y-94337142D02*
X126277714Y-94384761D01*
X126134857Y-94432380D01*
X126039619Y-94432380D01*
X125896761Y-94384761D01*
X125801523Y-94289523D01*
X125753904Y-94194285D01*
X125706285Y-94003809D01*
X125706285Y-93860952D01*
X125753904Y-93670476D01*
X125801523Y-93575238D01*
X125896761Y-93480000D01*
X126039619Y-93432380D01*
X126134857Y-93432380D01*
X126277714Y-93480000D01*
X126325333Y-93527619D01*
X126706285Y-93527619D02*
X126753904Y-93480000D01*
X126849142Y-93432380D01*
X127087238Y-93432380D01*
X127182476Y-93480000D01*
X127230095Y-93527619D01*
X127277714Y-93622857D01*
X127277714Y-93718095D01*
X127230095Y-93860952D01*
X126658666Y-94432380D01*
X127277714Y-94432380D01*
D10*
X121089714Y-92411428D02*
X121121142Y-92380000D01*
X121184000Y-92348571D01*
X121341142Y-92348571D01*
X121404000Y-92380000D01*
X121435428Y-92411428D01*
X121466857Y-92474285D01*
X121466857Y-92537142D01*
X121435428Y-92631428D01*
X121058285Y-93008571D01*
X121466857Y-93008571D01*
X121718285Y-92411428D02*
X121749714Y-92380000D01*
X121812571Y-92348571D01*
X121969714Y-92348571D01*
X122032571Y-92380000D01*
X122064000Y-92411428D01*
X122095428Y-92474285D01*
X122095428Y-92537142D01*
X122064000Y-92631428D01*
X121686857Y-93008571D01*
X122095428Y-93008571D01*
X122378285Y-92568571D02*
X122378285Y-93228571D01*
X122378285Y-92600000D02*
X122441142Y-92568571D01*
X122566857Y-92568571D01*
X122629714Y-92600000D01*
X122661142Y-92631428D01*
X122692571Y-92694285D01*
X122692571Y-92882857D01*
X122661142Y-92945714D01*
X122629714Y-92977142D01*
X122566857Y-93008571D01*
X122441142Y-93008571D01*
X122378285Y-92977142D01*
X123195428Y-92662857D02*
X122975428Y-92662857D01*
X122975428Y-93008571D02*
X122975428Y-92348571D01*
X123289714Y-92348571D01*
D11*
X117772380Y-70183333D02*
X118486666Y-70183333D01*
X118629523Y-70230952D01*
X118724761Y-70326190D01*
X118772380Y-70469047D01*
X118772380Y-70564285D01*
X117772380Y-69802380D02*
X117772380Y-69183333D01*
X118153333Y-69516666D01*
X118153333Y-69373809D01*
X118200952Y-69278571D01*
X118248571Y-69230952D01*
X118343809Y-69183333D01*
X118581904Y-69183333D01*
X118677142Y-69230952D01*
X118724761Y-69278571D01*
X118772380Y-69373809D01*
X118772380Y-69659523D01*
X118724761Y-69754761D01*
X118677142Y-69802380D01*
X133592380Y-71635714D02*
X132592380Y-71635714D01*
X132592380Y-71254761D01*
X132640000Y-71159523D01*
X132687619Y-71111904D01*
X132782857Y-71064285D01*
X132925714Y-71064285D01*
X133020952Y-71111904D01*
X133068571Y-71159523D01*
X133116190Y-71254761D01*
X133116190Y-71635714D01*
X133592380Y-70064285D02*
X133116190Y-70397619D01*
X133592380Y-70635714D02*
X132592380Y-70635714D01*
X132592380Y-70254761D01*
X132640000Y-70159523D01*
X132687619Y-70111904D01*
X132782857Y-70064285D01*
X132925714Y-70064285D01*
X133020952Y-70111904D01*
X133068571Y-70159523D01*
X133116190Y-70254761D01*
X133116190Y-70635714D01*
X132592380Y-69445238D02*
X132592380Y-69254761D01*
X132640000Y-69159523D01*
X132735238Y-69064285D01*
X132925714Y-69016666D01*
X133259047Y-69016666D01*
X133449523Y-69064285D01*
X133544761Y-69159523D01*
X133592380Y-69254761D01*
X133592380Y-69445238D01*
X133544761Y-69540476D01*
X133449523Y-69635714D01*
X133259047Y-69683333D01*
X132925714Y-69683333D01*
X132735238Y-69635714D01*
X132640000Y-69540476D01*
X132592380Y-69445238D01*
X132640000Y-68064285D02*
X132592380Y-68159523D01*
X132592380Y-68302380D01*
X132640000Y-68445238D01*
X132735238Y-68540476D01*
X132830476Y-68588095D01*
X133020952Y-68635714D01*
X133163809Y-68635714D01*
X133354285Y-68588095D01*
X133449523Y-68540476D01*
X133544761Y-68445238D01*
X133592380Y-68302380D01*
X133592380Y-68207142D01*
X133544761Y-68064285D01*
X133497142Y-68016666D01*
X133163809Y-68016666D01*
X133163809Y-68207142D01*
X119402380Y-85256666D02*
X118926190Y-85590000D01*
X119402380Y-85828095D02*
X118402380Y-85828095D01*
X118402380Y-85447142D01*
X118450000Y-85351904D01*
X118497619Y-85304285D01*
X118592857Y-85256666D01*
X118735714Y-85256666D01*
X118830952Y-85304285D01*
X118878571Y-85351904D01*
X118926190Y-85447142D01*
X118926190Y-85828095D01*
X119402380Y-84304285D02*
X119402380Y-84875714D01*
X119402380Y-84590000D02*
X118402380Y-84590000D01*
X118545238Y-84685238D01*
X118640476Y-84780476D01*
X118688095Y-84875714D01*
D10*
X122698571Y-85482857D02*
X122698571Y-85860000D01*
X122698571Y-85671428D02*
X122038571Y-85671428D01*
X122132857Y-85734285D01*
X122195714Y-85797142D01*
X122227142Y-85860000D01*
X122038571Y-85074285D02*
X122038571Y-85011428D01*
X122070000Y-84948571D01*
X122101428Y-84917142D01*
X122164285Y-84885714D01*
X122290000Y-84854285D01*
X122447142Y-84854285D01*
X122572857Y-84885714D01*
X122635714Y-84917142D01*
X122667142Y-84948571D01*
X122698571Y-85011428D01*
X122698571Y-85074285D01*
X122667142Y-85137142D01*
X122635714Y-85168571D01*
X122572857Y-85200000D01*
X122447142Y-85231428D01*
X122290000Y-85231428D01*
X122164285Y-85200000D01*
X122101428Y-85168571D01*
X122070000Y-85137142D01*
X122038571Y-85074285D01*
X122698571Y-84571428D02*
X122038571Y-84571428D01*
X122447142Y-84508571D02*
X122698571Y-84320000D01*
X122258571Y-84320000D02*
X122510000Y-84571428D01*
X126636428Y-102768571D02*
X126605000Y-102831428D01*
X126573571Y-102862857D01*
X126510714Y-102894285D01*
X126479285Y-102894285D01*
X126416428Y-102862857D01*
X126385000Y-102831428D01*
X126353571Y-102768571D01*
X126353571Y-102642857D01*
X126385000Y-102580000D01*
X126416428Y-102548571D01*
X126479285Y-102517142D01*
X126510714Y-102517142D01*
X126573571Y-102548571D01*
X126605000Y-102580000D01*
X126636428Y-102642857D01*
X126636428Y-102768571D01*
X126667857Y-102831428D01*
X126699285Y-102862857D01*
X126762142Y-102894285D01*
X126887857Y-102894285D01*
X126950714Y-102862857D01*
X126982142Y-102831428D01*
X127013571Y-102768571D01*
X127013571Y-102642857D01*
X126982142Y-102580000D01*
X126950714Y-102548571D01*
X126887857Y-102517142D01*
X126762142Y-102517142D01*
X126699285Y-102548571D01*
X126667857Y-102580000D01*
X126636428Y-102642857D01*
X127013571Y-102234285D02*
X126573571Y-102234285D01*
X126636428Y-102234285D02*
X126605000Y-102202857D01*
X126573571Y-102140000D01*
X126573571Y-102045714D01*
X126605000Y-101982857D01*
X126667857Y-101951428D01*
X127013571Y-101951428D01*
X126667857Y-101951428D02*
X126605000Y-101920000D01*
X126573571Y-101857142D01*
X126573571Y-101762857D01*
X126605000Y-101700000D01*
X126667857Y-101668571D01*
X127013571Y-101668571D01*
X127013571Y-101354285D02*
X126353571Y-101354285D01*
X127013571Y-101071428D02*
X126667857Y-101071428D01*
X126605000Y-101102857D01*
X126573571Y-101165714D01*
X126573571Y-101260000D01*
X126605000Y-101322857D01*
X126636428Y-101354285D01*
X126573571Y-100820000D02*
X126573571Y-100474285D01*
X127013571Y-100820000D01*
X127013571Y-100474285D01*
M02*
