M48
; DRILL file {KiCad (5.1.0)-1} date 25/09/2019 15:25:58
; FORMAT={-:-/ absolute / metric / decimal}
; #@! TF.CreationDate,2019-09-25T15:25:58+02:00
; #@! TF.GenerationSoftware,Kicad,Pcbnew,(5.1.0)-1
; #@! TF.FileFunction,Plated,1,2,PTH
FMAT,2
METRIC
T1C0.400
T2C0.800
T3C1.000
%
G90
G05
T1
X126.314Y-78.207
X127.457Y-83.388
T2
X123.19Y-99.26
X123.19Y-104.14
T3
X116.84Y-78.74
X116.84Y-81.28
X116.84Y-83.82
X116.84Y-86.36
X116.84Y-88.9
X116.84Y-91.44
X116.84Y-93.98
X116.84Y-96.52
X116.84Y-99.06
X116.84Y-101.6
X116.84Y-104.14
X116.84Y-106.68
X116.84Y-109.22
X116.84Y-111.76
X132.08Y-78.74
X132.08Y-81.28
X132.08Y-83.82
X132.08Y-86.36
X132.08Y-88.9
X132.08Y-91.44
X132.08Y-93.98
X132.08Y-96.52
X132.08Y-99.06
X132.08Y-101.6
X132.08Y-104.14
X132.08Y-106.68
X132.08Y-109.22
X132.08Y-111.76
X120.65Y-69.85
X123.19Y-69.85
X125.73Y-69.85
X128.27Y-69.85
X130.81Y-69.85
T0
M30
