G04 #@! TF.GenerationSoftware,KiCad,Pcbnew,(5.1.0)-1*
G04 #@! TF.CreationDate,2019-09-25T15:25:55+02:00*
G04 #@! TF.ProjectId,atmega328P-flasher,61746d65-6761-4333-9238-502d666c6173,rev?*
G04 #@! TF.SameCoordinates,Original*
G04 #@! TF.FileFunction,Legend,Bot*
G04 #@! TF.FilePolarity,Positive*
%FSLAX46Y46*%
G04 Gerber Fmt 4.6, Leading zero omitted, Abs format (unit mm)*
G04 Created by KiCad (PCBNEW (5.1.0)-1) date 2019-09-25 15:25:55*
%MOMM*%
%LPD*%
G04 APERTURE LIST*
%ADD10C,0.150000*%
%ADD11C,0.010000*%
G04 APERTURE END LIST*
D10*
X129706666Y-82067142D02*
X129706666Y-82543333D01*
X129992380Y-81971904D02*
X128992380Y-82305238D01*
X129992380Y-82638571D01*
X128992380Y-82829047D02*
X128992380Y-83400476D01*
X129992380Y-83114761D02*
X128992380Y-83114761D01*
X129992380Y-83733809D02*
X128992380Y-83733809D01*
X129706666Y-84067142D01*
X128992380Y-84400476D01*
X129992380Y-84400476D01*
X129468571Y-84876666D02*
X129468571Y-85210000D01*
X129992380Y-85352857D02*
X129992380Y-84876666D01*
X128992380Y-84876666D01*
X128992380Y-85352857D01*
X129040000Y-86305238D02*
X128992380Y-86210000D01*
X128992380Y-86067142D01*
X129040000Y-85924285D01*
X129135238Y-85829047D01*
X129230476Y-85781428D01*
X129420952Y-85733809D01*
X129563809Y-85733809D01*
X129754285Y-85781428D01*
X129849523Y-85829047D01*
X129944761Y-85924285D01*
X129992380Y-86067142D01*
X129992380Y-86162380D01*
X129944761Y-86305238D01*
X129897142Y-86352857D01*
X129563809Y-86352857D01*
X129563809Y-86162380D01*
X129706666Y-86733809D02*
X129706666Y-87210000D01*
X129992380Y-86638571D02*
X128992380Y-86971904D01*
X129992380Y-87305238D01*
X128992380Y-87543333D02*
X128992380Y-88162380D01*
X129373333Y-87829047D01*
X129373333Y-87971904D01*
X129420952Y-88067142D01*
X129468571Y-88114761D01*
X129563809Y-88162380D01*
X129801904Y-88162380D01*
X129897142Y-88114761D01*
X129944761Y-88067142D01*
X129992380Y-87971904D01*
X129992380Y-87686190D01*
X129944761Y-87590952D01*
X129897142Y-87543333D01*
X129087619Y-88543333D02*
X129040000Y-88590952D01*
X128992380Y-88686190D01*
X128992380Y-88924285D01*
X129040000Y-89019523D01*
X129087619Y-89067142D01*
X129182857Y-89114761D01*
X129278095Y-89114761D01*
X129420952Y-89067142D01*
X129992380Y-88495714D01*
X129992380Y-89114761D01*
X129420952Y-89686190D02*
X129373333Y-89590952D01*
X129325714Y-89543333D01*
X129230476Y-89495714D01*
X129182857Y-89495714D01*
X129087619Y-89543333D01*
X129040000Y-89590952D01*
X128992380Y-89686190D01*
X128992380Y-89876666D01*
X129040000Y-89971904D01*
X129087619Y-90019523D01*
X129182857Y-90067142D01*
X129230476Y-90067142D01*
X129325714Y-90019523D01*
X129373333Y-89971904D01*
X129420952Y-89876666D01*
X129420952Y-89686190D01*
X129468571Y-89590952D01*
X129516190Y-89543333D01*
X129611428Y-89495714D01*
X129801904Y-89495714D01*
X129897142Y-89543333D01*
X129944761Y-89590952D01*
X129992380Y-89686190D01*
X129992380Y-89876666D01*
X129944761Y-89971904D01*
X129897142Y-90019523D01*
X129801904Y-90067142D01*
X129611428Y-90067142D01*
X129516190Y-90019523D01*
X129468571Y-89971904D01*
X129420952Y-89876666D01*
X129992380Y-90495714D02*
X128992380Y-90495714D01*
X128992380Y-90876666D01*
X129040000Y-90971904D01*
X129087619Y-91019523D01*
X129182857Y-91067142D01*
X129325714Y-91067142D01*
X129420952Y-91019523D01*
X129468571Y-90971904D01*
X129516190Y-90876666D01*
X129516190Y-90495714D01*
X129611428Y-91495714D02*
X129611428Y-92257619D01*
X129468571Y-93067142D02*
X129516190Y-93209999D01*
X129563809Y-93257619D01*
X129659047Y-93305238D01*
X129801904Y-93305238D01*
X129897142Y-93257619D01*
X129944761Y-93209999D01*
X129992380Y-93114761D01*
X129992380Y-92733809D01*
X128992380Y-92733809D01*
X128992380Y-93067142D01*
X129040000Y-93162380D01*
X129087619Y-93209999D01*
X129182857Y-93257619D01*
X129278095Y-93257619D01*
X129373333Y-93209999D01*
X129420952Y-93162380D01*
X129468571Y-93067142D01*
X129468571Y-92733809D01*
X128992380Y-93924285D02*
X128992380Y-94114761D01*
X129040000Y-94209999D01*
X129135238Y-94305238D01*
X129325714Y-94352857D01*
X129659047Y-94352857D01*
X129849523Y-94305238D01*
X129944761Y-94209999D01*
X129992380Y-94114761D01*
X129992380Y-93924285D01*
X129944761Y-93829047D01*
X129849523Y-93733809D01*
X129659047Y-93686190D01*
X129325714Y-93686190D01*
X129135238Y-93733809D01*
X129040000Y-93829047D01*
X128992380Y-93924285D01*
X128992380Y-94971904D02*
X128992380Y-95162380D01*
X129040000Y-95257619D01*
X129135238Y-95352857D01*
X129325714Y-95400476D01*
X129659047Y-95400476D01*
X129849523Y-95352857D01*
X129944761Y-95257619D01*
X129992380Y-95162380D01*
X129992380Y-94971904D01*
X129944761Y-94876666D01*
X129849523Y-94781428D01*
X129659047Y-94733809D01*
X129325714Y-94733809D01*
X129135238Y-94781428D01*
X129040000Y-94876666D01*
X128992380Y-94971904D01*
X128992380Y-95686190D02*
X128992380Y-96257619D01*
X129992380Y-95971904D02*
X128992380Y-95971904D01*
X130087619Y-96352857D02*
X130087619Y-97114761D01*
X129468571Y-97686190D02*
X129468571Y-97352857D01*
X129992380Y-97352857D02*
X128992380Y-97352857D01*
X128992380Y-97829047D01*
X129992380Y-98686190D02*
X129992380Y-98209999D01*
X128992380Y-98209999D01*
X129706666Y-98971904D02*
X129706666Y-99448095D01*
X129992380Y-98876666D02*
X128992380Y-99209999D01*
X129992380Y-99543333D01*
X129944761Y-99829047D02*
X129992380Y-99971904D01*
X129992380Y-100209999D01*
X129944761Y-100305238D01*
X129897142Y-100352857D01*
X129801904Y-100400476D01*
X129706666Y-100400476D01*
X129611428Y-100352857D01*
X129563809Y-100305238D01*
X129516190Y-100209999D01*
X129468571Y-100019523D01*
X129420952Y-99924285D01*
X129373333Y-99876666D01*
X129278095Y-99829047D01*
X129182857Y-99829047D01*
X129087619Y-99876666D01*
X129040000Y-99924285D01*
X128992380Y-100019523D01*
X128992380Y-100257619D01*
X129040000Y-100400476D01*
X129992380Y-100829047D02*
X128992380Y-100829047D01*
X129468571Y-100829047D02*
X129468571Y-101400476D01*
X129992380Y-101400476D02*
X128992380Y-101400476D01*
X129468571Y-101876666D02*
X129468571Y-102209999D01*
X129992380Y-102352857D02*
X129992380Y-101876666D01*
X128992380Y-101876666D01*
X128992380Y-102352857D01*
X129992380Y-103352857D02*
X129516190Y-103019523D01*
X129992380Y-102781428D02*
X128992380Y-102781428D01*
X128992380Y-103162380D01*
X129040000Y-103257619D01*
X129087619Y-103305238D01*
X129182857Y-103352857D01*
X129325714Y-103352857D01*
X129420952Y-103305238D01*
X129468571Y-103257619D01*
X129516190Y-103162380D01*
X129516190Y-102781428D01*
D11*
G36*
X121037210Y-99960843D02*
G01*
X121228581Y-100188959D01*
X121417186Y-100309411D01*
X121489175Y-100315855D01*
X121438818Y-100222255D01*
X121281002Y-100061146D01*
X121136209Y-99913367D01*
X121069602Y-99772538D01*
X121061313Y-99572577D01*
X121077362Y-99383812D01*
X121099804Y-99139409D01*
X121099088Y-99049759D01*
X121071728Y-99101428D01*
X121034076Y-99216988D01*
X120965235Y-99628748D01*
X121037210Y-99960843D01*
X121037210Y-99960843D01*
G37*
X121037210Y-99960843D02*
X121228581Y-100188959D01*
X121417186Y-100309411D01*
X121489175Y-100315855D01*
X121438818Y-100222255D01*
X121281002Y-100061146D01*
X121136209Y-99913367D01*
X121069602Y-99772538D01*
X121061313Y-99572577D01*
X121077362Y-99383812D01*
X121099804Y-99139409D01*
X121099088Y-99049759D01*
X121071728Y-99101428D01*
X121034076Y-99216988D01*
X120965235Y-99628748D01*
X121037210Y-99960843D01*
G36*
X121806985Y-94903545D02*
G01*
X121820396Y-94911334D01*
X121872219Y-94839423D01*
X121887381Y-94720834D01*
X121960098Y-94400165D01*
X122146220Y-94125717D01*
X122311135Y-94004084D01*
X122451758Y-93927955D01*
X122445854Y-93900651D01*
X122333931Y-93896582D01*
X122100612Y-93973015D01*
X121912733Y-94180629D01*
X121800312Y-94481975D01*
X121786273Y-94579818D01*
X121781130Y-94788547D01*
X121806985Y-94903545D01*
X121806985Y-94903545D01*
G37*
X121806985Y-94903545D02*
X121820396Y-94911334D01*
X121872219Y-94839423D01*
X121887381Y-94720834D01*
X121960098Y-94400165D01*
X122146220Y-94125717D01*
X122311135Y-94004084D01*
X122451758Y-93927955D01*
X122445854Y-93900651D01*
X122333931Y-93896582D01*
X122100612Y-93973015D01*
X121912733Y-94180629D01*
X121800312Y-94481975D01*
X121786273Y-94579818D01*
X121781130Y-94788547D01*
X121806985Y-94903545D01*
G36*
X121342306Y-99765378D02*
G01*
X121487776Y-99856526D01*
X121737766Y-99917054D01*
X122058578Y-99934558D01*
X122763236Y-99851023D01*
X123419001Y-99642817D01*
X123990901Y-99324061D01*
X124357846Y-99006097D01*
X124678306Y-98555027D01*
X124911856Y-98000722D01*
X125049884Y-97390090D01*
X125083775Y-96770043D01*
X125004916Y-96187489D01*
X124922631Y-95930255D01*
X124656277Y-95454487D01*
X124262045Y-95001934D01*
X123919789Y-94719813D01*
X123919789Y-94911334D01*
X124020946Y-94974614D01*
X124180606Y-95136242D01*
X124363004Y-95353898D01*
X124532373Y-95585260D01*
X124641736Y-95765612D01*
X124825814Y-96293191D01*
X124885306Y-96898748D01*
X124819954Y-97545297D01*
X124658232Y-98120780D01*
X124529117Y-98389938D01*
X124348650Y-98667390D01*
X124143940Y-98922819D01*
X123942096Y-99125910D01*
X123770229Y-99246343D01*
X123655449Y-99253803D01*
X123649640Y-99248707D01*
X123582500Y-99095956D01*
X123536657Y-98824725D01*
X123514772Y-98484840D01*
X123519501Y-98126126D01*
X123553503Y-97798406D01*
X123568141Y-97721262D01*
X123616773Y-97393450D01*
X123599984Y-97091767D01*
X123535867Y-96797814D01*
X123470378Y-96452773D01*
X123451554Y-96136463D01*
X123462473Y-96014264D01*
X123523612Y-95767692D01*
X123618153Y-95487785D01*
X123726758Y-95221184D01*
X123830089Y-95014527D01*
X123908808Y-94914454D01*
X123919789Y-94911334D01*
X123919789Y-94719813D01*
X123781111Y-94605500D01*
X123254653Y-94298089D01*
X122723849Y-94112605D01*
X122659589Y-94100341D01*
X122659589Y-94323672D01*
X122914746Y-94376399D01*
X123044289Y-94420342D01*
X123202831Y-94492893D01*
X123292665Y-94592979D01*
X123321262Y-94756204D01*
X123296094Y-95018174D01*
X123238162Y-95344277D01*
X123179667Y-95668662D01*
X123129637Y-95977826D01*
X123112514Y-96099147D01*
X123072627Y-96359523D01*
X123013958Y-96688242D01*
X122980168Y-96861147D01*
X122919108Y-97185471D01*
X122868676Y-97493719D01*
X122851485Y-97620667D01*
X122810518Y-97892447D01*
X122760914Y-98128667D01*
X122721623Y-98305136D01*
X122713549Y-98387746D01*
X122704565Y-98488401D01*
X122673016Y-98711070D01*
X122625337Y-99010934D01*
X122616306Y-99065079D01*
X122510536Y-99695000D01*
X122071335Y-99720591D01*
X121632133Y-99746183D01*
X121632133Y-99459536D01*
X121647257Y-99248941D01*
X121684070Y-99121693D01*
X121688100Y-99116923D01*
X121734953Y-98998381D01*
X121760352Y-98827645D01*
X121783013Y-98625463D01*
X121826452Y-98323532D01*
X121878837Y-98001667D01*
X121936069Y-97665821D01*
X121986190Y-97364833D01*
X122017108Y-97171786D01*
X122051231Y-96959454D01*
X122102108Y-96656088D01*
X122144447Y-96409786D01*
X122201258Y-96073739D01*
X122252047Y-95757496D01*
X122277321Y-95588667D01*
X122319353Y-95350370D01*
X122365039Y-95173303D01*
X122367993Y-95165334D01*
X122399162Y-95068797D01*
X122422179Y-94940419D01*
X122444439Y-94729204D01*
X122463170Y-94509167D01*
X122516487Y-94366793D01*
X122659589Y-94323672D01*
X122659589Y-94100341D01*
X122624128Y-94093573D01*
X122537368Y-94074229D01*
X122467353Y-94057972D01*
X122409674Y-94060436D01*
X122359922Y-94097252D01*
X122313687Y-94184055D01*
X122266560Y-94336477D01*
X122214133Y-94570152D01*
X122151994Y-94900713D01*
X122075735Y-95343792D01*
X121980948Y-95915024D01*
X121863221Y-96630040D01*
X121798780Y-97019800D01*
X121691770Y-97660077D01*
X121592114Y-98246260D01*
X121503484Y-98757541D01*
X121429551Y-99173111D01*
X121373985Y-99472160D01*
X121340457Y-99633880D01*
X121333715Y-99656040D01*
X121342306Y-99765378D01*
X121342306Y-99765378D01*
G37*
X121342306Y-99765378D02*
X121487776Y-99856526D01*
X121737766Y-99917054D01*
X122058578Y-99934558D01*
X122763236Y-99851023D01*
X123419001Y-99642817D01*
X123990901Y-99324061D01*
X124357846Y-99006097D01*
X124678306Y-98555027D01*
X124911856Y-98000722D01*
X125049884Y-97390090D01*
X125083775Y-96770043D01*
X125004916Y-96187489D01*
X124922631Y-95930255D01*
X124656277Y-95454487D01*
X124262045Y-95001934D01*
X123919789Y-94719813D01*
X123919789Y-94911334D01*
X124020946Y-94974614D01*
X124180606Y-95136242D01*
X124363004Y-95353898D01*
X124532373Y-95585260D01*
X124641736Y-95765612D01*
X124825814Y-96293191D01*
X124885306Y-96898748D01*
X124819954Y-97545297D01*
X124658232Y-98120780D01*
X124529117Y-98389938D01*
X124348650Y-98667390D01*
X124143940Y-98922819D01*
X123942096Y-99125910D01*
X123770229Y-99246343D01*
X123655449Y-99253803D01*
X123649640Y-99248707D01*
X123582500Y-99095956D01*
X123536657Y-98824725D01*
X123514772Y-98484840D01*
X123519501Y-98126126D01*
X123553503Y-97798406D01*
X123568141Y-97721262D01*
X123616773Y-97393450D01*
X123599984Y-97091767D01*
X123535867Y-96797814D01*
X123470378Y-96452773D01*
X123451554Y-96136463D01*
X123462473Y-96014264D01*
X123523612Y-95767692D01*
X123618153Y-95487785D01*
X123726758Y-95221184D01*
X123830089Y-95014527D01*
X123908808Y-94914454D01*
X123919789Y-94911334D01*
X123919789Y-94719813D01*
X123781111Y-94605500D01*
X123254653Y-94298089D01*
X122723849Y-94112605D01*
X122659589Y-94100341D01*
X122659589Y-94323672D01*
X122914746Y-94376399D01*
X123044289Y-94420342D01*
X123202831Y-94492893D01*
X123292665Y-94592979D01*
X123321262Y-94756204D01*
X123296094Y-95018174D01*
X123238162Y-95344277D01*
X123179667Y-95668662D01*
X123129637Y-95977826D01*
X123112514Y-96099147D01*
X123072627Y-96359523D01*
X123013958Y-96688242D01*
X122980168Y-96861147D01*
X122919108Y-97185471D01*
X122868676Y-97493719D01*
X122851485Y-97620667D01*
X122810518Y-97892447D01*
X122760914Y-98128667D01*
X122721623Y-98305136D01*
X122713549Y-98387746D01*
X122704565Y-98488401D01*
X122673016Y-98711070D01*
X122625337Y-99010934D01*
X122616306Y-99065079D01*
X122510536Y-99695000D01*
X122071335Y-99720591D01*
X121632133Y-99746183D01*
X121632133Y-99459536D01*
X121647257Y-99248941D01*
X121684070Y-99121693D01*
X121688100Y-99116923D01*
X121734953Y-98998381D01*
X121760352Y-98827645D01*
X121783013Y-98625463D01*
X121826452Y-98323532D01*
X121878837Y-98001667D01*
X121936069Y-97665821D01*
X121986190Y-97364833D01*
X122017108Y-97171786D01*
X122051231Y-96959454D01*
X122102108Y-96656088D01*
X122144447Y-96409786D01*
X122201258Y-96073739D01*
X122252047Y-95757496D01*
X122277321Y-95588667D01*
X122319353Y-95350370D01*
X122365039Y-95173303D01*
X122367993Y-95165334D01*
X122399162Y-95068797D01*
X122422179Y-94940419D01*
X122444439Y-94729204D01*
X122463170Y-94509167D01*
X122516487Y-94366793D01*
X122659589Y-94323672D01*
X122659589Y-94100341D01*
X122624128Y-94093573D01*
X122537368Y-94074229D01*
X122467353Y-94057972D01*
X122409674Y-94060436D01*
X122359922Y-94097252D01*
X122313687Y-94184055D01*
X122266560Y-94336477D01*
X122214133Y-94570152D01*
X122151994Y-94900713D01*
X122075735Y-95343792D01*
X121980948Y-95915024D01*
X121863221Y-96630040D01*
X121798780Y-97019800D01*
X121691770Y-97660077D01*
X121592114Y-98246260D01*
X121503484Y-98757541D01*
X121429551Y-99173111D01*
X121373985Y-99472160D01*
X121340457Y-99633880D01*
X121333715Y-99656040D01*
X121342306Y-99765378D01*
G36*
X125298339Y-98044000D02*
G01*
X125427232Y-97724930D01*
X125477733Y-97396721D01*
X125445531Y-97155385D01*
X125403566Y-97096450D01*
X125367762Y-97181735D01*
X125334178Y-97409385D01*
X125294217Y-97705099D01*
X125249683Y-97963403D01*
X125231875Y-98044000D01*
X125178399Y-98255667D01*
X125298339Y-98044000D01*
X125298339Y-98044000D01*
G37*
X125298339Y-98044000D02*
X125427232Y-97724930D01*
X125477733Y-97396721D01*
X125445531Y-97155385D01*
X125403566Y-97096450D01*
X125367762Y-97181735D01*
X125334178Y-97409385D01*
X125294217Y-97705099D01*
X125249683Y-97963403D01*
X125231875Y-98044000D01*
X125178399Y-98255667D01*
X125298339Y-98044000D01*
G36*
X118987229Y-98380207D02*
G01*
X119007467Y-98382667D01*
X119089673Y-98318238D01*
X119092133Y-98298000D01*
X119027704Y-98215794D01*
X119007467Y-98213334D01*
X118925260Y-98277763D01*
X118922800Y-98298000D01*
X118987229Y-98380207D01*
X118987229Y-98380207D01*
G37*
X118987229Y-98380207D02*
X119007467Y-98382667D01*
X119089673Y-98318238D01*
X119092133Y-98298000D01*
X119027704Y-98215794D01*
X119007467Y-98213334D01*
X118925260Y-98277763D01*
X118922800Y-98298000D01*
X118987229Y-98380207D01*
G36*
X118968517Y-95151005D02*
G01*
X119007467Y-95165334D01*
X119082581Y-95096757D01*
X119092133Y-95038334D01*
X119046416Y-94925662D01*
X119007467Y-94911334D01*
X118932352Y-94979910D01*
X118922800Y-95038334D01*
X118968517Y-95151005D01*
X118968517Y-95151005D01*
G37*
X118968517Y-95151005D02*
X119007467Y-95165334D01*
X119082581Y-95096757D01*
X119092133Y-95038334D01*
X119046416Y-94925662D01*
X119007467Y-94911334D01*
X118932352Y-94979910D01*
X118922800Y-95038334D01*
X118968517Y-95151005D01*
G36*
X118909091Y-99129743D02*
G01*
X119007467Y-99144667D01*
X119151537Y-99099990D01*
X119162870Y-99000581D01*
X119092133Y-98933000D01*
X118952029Y-98922590D01*
X118848333Y-99015282D01*
X118838133Y-99064997D01*
X118909091Y-99129743D01*
X118909091Y-99129743D01*
G37*
X118909091Y-99129743D02*
X119007467Y-99144667D01*
X119151537Y-99099990D01*
X119162870Y-99000581D01*
X119092133Y-98933000D01*
X118952029Y-98922590D01*
X118848333Y-99015282D01*
X118838133Y-99064997D01*
X118909091Y-99129743D01*
G36*
X118909046Y-98028124D02*
G01*
X119007467Y-98044000D01*
X119145047Y-98008544D01*
X119176800Y-97959334D01*
X119105887Y-97890543D01*
X119007467Y-97874667D01*
X118869886Y-97910123D01*
X118838133Y-97959334D01*
X118909046Y-98028124D01*
X118909046Y-98028124D01*
G37*
X118909046Y-98028124D02*
X119007467Y-98044000D01*
X119145047Y-98008544D01*
X119176800Y-97959334D01*
X119105887Y-97890543D01*
X119007467Y-97874667D01*
X118869886Y-97910123D01*
X118838133Y-97959334D01*
X118909046Y-98028124D01*
G36*
X118908719Y-96242428D02*
G01*
X119007467Y-96266000D01*
X119145371Y-96213061D01*
X119176800Y-96139000D01*
X119106214Y-96035572D01*
X119007467Y-96012000D01*
X118869562Y-96064940D01*
X118838133Y-96139000D01*
X118908719Y-96242428D01*
X118908719Y-96242428D01*
G37*
X118908719Y-96242428D02*
X119007467Y-96266000D01*
X119145371Y-96213061D01*
X119176800Y-96139000D01*
X119106214Y-96035572D01*
X119007467Y-96012000D01*
X118869562Y-96064940D01*
X118838133Y-96139000D01*
X118908719Y-96242428D01*
G36*
X118909046Y-95488124D02*
G01*
X119007467Y-95504000D01*
X119145047Y-95468544D01*
X119176800Y-95419334D01*
X119105887Y-95350543D01*
X119007467Y-95334667D01*
X118869886Y-95370123D01*
X118838133Y-95419334D01*
X118909046Y-95488124D01*
X118909046Y-95488124D01*
G37*
X118909046Y-95488124D02*
X119007467Y-95504000D01*
X119145047Y-95468544D01*
X119176800Y-95419334D01*
X119105887Y-95350543D01*
X119007467Y-95334667D01*
X118869886Y-95370123D01*
X118838133Y-95419334D01*
X118909046Y-95488124D01*
G36*
X118876684Y-98740477D02*
G01*
X119007467Y-98763667D01*
X119175039Y-98723755D01*
X119240300Y-98657834D01*
X119196242Y-98577545D01*
X119007467Y-98552000D01*
X118813388Y-98579956D01*
X118774633Y-98657834D01*
X118876684Y-98740477D01*
X118876684Y-98740477D01*
G37*
X118876684Y-98740477D02*
X119007467Y-98763667D01*
X119175039Y-98723755D01*
X119240300Y-98657834D01*
X119196242Y-98577545D01*
X119007467Y-98552000D01*
X118813388Y-98579956D01*
X118774633Y-98657834D01*
X118876684Y-98740477D01*
G36*
X118829195Y-97679160D02*
G01*
X119007467Y-97705334D01*
X119209119Y-97667469D01*
X119261467Y-97578334D01*
X119185738Y-97477507D01*
X119007467Y-97451334D01*
X118805814Y-97489198D01*
X118753467Y-97578334D01*
X118829195Y-97679160D01*
X118829195Y-97679160D01*
G37*
X118829195Y-97679160D02*
X119007467Y-97705334D01*
X119209119Y-97667469D01*
X119261467Y-97578334D01*
X119185738Y-97477507D01*
X119007467Y-97451334D01*
X118805814Y-97489198D01*
X118753467Y-97578334D01*
X118829195Y-97679160D01*
G36*
X118687299Y-95771165D02*
G01*
X118780966Y-95843370D01*
X118953154Y-95875036D01*
X119132790Y-95865169D01*
X119248801Y-95812781D01*
X119261473Y-95779167D01*
X119184042Y-95703465D01*
X118973771Y-95673432D01*
X118958078Y-95673334D01*
X118748945Y-95696998D01*
X118685344Y-95763558D01*
X118687299Y-95771165D01*
X118687299Y-95771165D01*
G37*
X118687299Y-95771165D02*
X118780966Y-95843370D01*
X118953154Y-95875036D01*
X119132790Y-95865169D01*
X119248801Y-95812781D01*
X119261473Y-95779167D01*
X119184042Y-95703465D01*
X118973771Y-95673432D01*
X118958078Y-95673334D01*
X118748945Y-95696998D01*
X118685344Y-95763558D01*
X118687299Y-95771165D01*
G36*
X118629453Y-97319532D02*
G01*
X118786360Y-97358540D01*
X119007467Y-97366667D01*
X119273685Y-97353071D01*
X119403711Y-97305999D01*
X119430800Y-97239667D01*
X119385480Y-97159801D01*
X119228573Y-97120794D01*
X119007467Y-97112667D01*
X118741248Y-97126263D01*
X118611222Y-97173335D01*
X118584133Y-97239667D01*
X118629453Y-97319532D01*
X118629453Y-97319532D01*
G37*
X118629453Y-97319532D02*
X118786360Y-97358540D01*
X119007467Y-97366667D01*
X119273685Y-97353071D01*
X119403711Y-97305999D01*
X119430800Y-97239667D01*
X119385480Y-97159801D01*
X119228573Y-97120794D01*
X119007467Y-97112667D01*
X118741248Y-97126263D01*
X118611222Y-97173335D01*
X118584133Y-97239667D01*
X118629453Y-97319532D01*
G36*
X118660280Y-96568298D02*
G01*
X118854975Y-96598953D01*
X119007467Y-96604667D01*
X119248954Y-96589437D01*
X119402231Y-96550498D01*
X119430800Y-96520000D01*
X119354653Y-96471703D01*
X119159958Y-96441047D01*
X119007467Y-96435334D01*
X118765979Y-96450563D01*
X118612702Y-96489502D01*
X118584133Y-96520000D01*
X118660280Y-96568298D01*
X118660280Y-96568298D01*
G37*
X118660280Y-96568298D02*
X118854975Y-96598953D01*
X119007467Y-96604667D01*
X119248954Y-96589437D01*
X119402231Y-96550498D01*
X119430800Y-96520000D01*
X119354653Y-96471703D01*
X119159958Y-96441047D01*
X119007467Y-96435334D01*
X118765979Y-96450563D01*
X118612702Y-96489502D01*
X118584133Y-96520000D01*
X118660280Y-96568298D01*
G36*
X118409349Y-96900596D02*
G01*
X118625619Y-96930060D01*
X118946874Y-96943051D01*
X119007467Y-96943334D01*
X119342899Y-96933431D01*
X119578613Y-96906398D01*
X119682542Y-96866241D01*
X119684800Y-96858667D01*
X119605584Y-96816738D01*
X119389314Y-96787273D01*
X119068059Y-96774282D01*
X119007467Y-96774000D01*
X118672034Y-96783902D01*
X118436320Y-96810936D01*
X118332391Y-96851093D01*
X118330133Y-96858667D01*
X118409349Y-96900596D01*
X118409349Y-96900596D01*
G37*
X118409349Y-96900596D02*
X118625619Y-96930060D01*
X118946874Y-96943051D01*
X119007467Y-96943334D01*
X119342899Y-96933431D01*
X119578613Y-96906398D01*
X119682542Y-96866241D01*
X119684800Y-96858667D01*
X119605584Y-96816738D01*
X119389314Y-96787273D01*
X119068059Y-96774282D01*
X119007467Y-96774000D01*
X118672034Y-96783902D01*
X118436320Y-96810936D01*
X118332391Y-96851093D01*
X118330133Y-96858667D01*
X118409349Y-96900596D01*
G36*
X120126420Y-92156600D02*
G01*
X120160138Y-92482402D01*
X120211174Y-92751655D01*
X120269074Y-92910720D01*
X120274921Y-92918600D01*
X120377118Y-92986285D01*
X120567268Y-93027160D01*
X120876549Y-93045981D01*
X121127575Y-93048667D01*
X121479108Y-93043226D01*
X121774596Y-93028712D01*
X121966421Y-93007838D01*
X122002145Y-92998834D01*
X122098284Y-92885306D01*
X122173417Y-92656543D01*
X122188017Y-92575501D01*
X122244027Y-92202000D01*
X123240800Y-92202000D01*
X123240800Y-91524667D01*
X121166467Y-91524667D01*
X121166467Y-92202000D01*
X121454049Y-92213963D01*
X121650943Y-92245652D01*
X121716800Y-92286667D01*
X121639042Y-92330910D01*
X121433060Y-92361202D01*
X121166467Y-92371334D01*
X120878884Y-92359371D01*
X120681990Y-92327681D01*
X120616133Y-92286667D01*
X120693891Y-92242423D01*
X120899873Y-92212132D01*
X121166467Y-92202000D01*
X121166467Y-91524667D01*
X120085865Y-91524667D01*
X120126420Y-92156600D01*
X120126420Y-92156600D01*
G37*
X120126420Y-92156600D02*
X120160138Y-92482402D01*
X120211174Y-92751655D01*
X120269074Y-92910720D01*
X120274921Y-92918600D01*
X120377118Y-92986285D01*
X120567268Y-93027160D01*
X120876549Y-93045981D01*
X121127575Y-93048667D01*
X121479108Y-93043226D01*
X121774596Y-93028712D01*
X121966421Y-93007838D01*
X122002145Y-92998834D01*
X122098284Y-92885306D01*
X122173417Y-92656543D01*
X122188017Y-92575501D01*
X122244027Y-92202000D01*
X123240800Y-92202000D01*
X123240800Y-91524667D01*
X121166467Y-91524667D01*
X121166467Y-92202000D01*
X121454049Y-92213963D01*
X121650943Y-92245652D01*
X121716800Y-92286667D01*
X121639042Y-92330910D01*
X121433060Y-92361202D01*
X121166467Y-92371334D01*
X120878884Y-92359371D01*
X120681990Y-92327681D01*
X120616133Y-92286667D01*
X120693891Y-92242423D01*
X120899873Y-92212132D01*
X121166467Y-92202000D01*
X121166467Y-91524667D01*
X120085865Y-91524667D01*
X120126420Y-92156600D01*
G36*
X120120013Y-90824384D02*
G01*
X120128333Y-90847334D01*
X120225621Y-90858221D01*
X120456317Y-90887778D01*
X120786110Y-90931345D01*
X121180690Y-90984264D01*
X121605746Y-91041876D01*
X122026968Y-91099523D01*
X122410044Y-91152545D01*
X122720664Y-91196285D01*
X122924517Y-91226083D01*
X122965633Y-91232579D01*
X123141016Y-91252869D01*
X123219502Y-91206954D01*
X123240062Y-91052806D01*
X123240800Y-90935837D01*
X123232117Y-90717398D01*
X123178063Y-90619704D01*
X123036626Y-90594199D01*
X122944467Y-90593334D01*
X122718344Y-90562049D01*
X122648133Y-90475392D01*
X122724594Y-90343453D01*
X122928696Y-90266505D01*
X123078391Y-90254667D01*
X123190077Y-90219466D01*
X123235562Y-90084948D01*
X123240800Y-89952241D01*
X123240800Y-89649816D01*
X122753967Y-89710300D01*
X122473531Y-89745523D01*
X122079504Y-89795513D01*
X122037861Y-89800827D01*
X122037861Y-90352129D01*
X122127523Y-90395209D01*
X122140249Y-90445167D01*
X122085126Y-90505812D01*
X121904641Y-90526163D01*
X121653415Y-90515497D01*
X121166467Y-90479995D01*
X121505133Y-90414543D01*
X121839352Y-90359006D01*
X122037861Y-90352129D01*
X122037861Y-89800827D01*
X121626236Y-89853354D01*
X121208800Y-89906893D01*
X120150467Y-90043000D01*
X120124661Y-90445167D01*
X120115184Y-90679409D01*
X120120013Y-90824384D01*
X120120013Y-90824384D01*
G37*
X120120013Y-90824384D02*
X120128333Y-90847334D01*
X120225621Y-90858221D01*
X120456317Y-90887778D01*
X120786110Y-90931345D01*
X121180690Y-90984264D01*
X121605746Y-91041876D01*
X122026968Y-91099523D01*
X122410044Y-91152545D01*
X122720664Y-91196285D01*
X122924517Y-91226083D01*
X122965633Y-91232579D01*
X123141016Y-91252869D01*
X123219502Y-91206954D01*
X123240062Y-91052806D01*
X123240800Y-90935837D01*
X123232117Y-90717398D01*
X123178063Y-90619704D01*
X123036626Y-90594199D01*
X122944467Y-90593334D01*
X122718344Y-90562049D01*
X122648133Y-90475392D01*
X122724594Y-90343453D01*
X122928696Y-90266505D01*
X123078391Y-90254667D01*
X123190077Y-90219466D01*
X123235562Y-90084948D01*
X123240800Y-89952241D01*
X123240800Y-89649816D01*
X122753967Y-89710300D01*
X122473531Y-89745523D01*
X122079504Y-89795513D01*
X122037861Y-89800827D01*
X122037861Y-90352129D01*
X122127523Y-90395209D01*
X122140249Y-90445167D01*
X122085126Y-90505812D01*
X121904641Y-90526163D01*
X121653415Y-90515497D01*
X121166467Y-90479995D01*
X121505133Y-90414543D01*
X121839352Y-90359006D01*
X122037861Y-90352129D01*
X122037861Y-89800827D01*
X121626236Y-89853354D01*
X121208800Y-89906893D01*
X120150467Y-90043000D01*
X120124661Y-90445167D01*
X120115184Y-90679409D01*
X120120013Y-90824384D01*
G36*
X120123935Y-89005834D02*
G01*
X120150467Y-89281000D01*
X121695633Y-89304077D01*
X123240800Y-89327153D01*
X123240800Y-88669138D01*
X122711633Y-88560574D01*
X122329465Y-88474371D01*
X122115319Y-88406769D01*
X122068961Y-88357306D01*
X122190158Y-88325520D01*
X122478674Y-88310949D01*
X122584633Y-88309908D01*
X123240800Y-88307334D01*
X123240800Y-87799334D01*
X120108133Y-87799334D01*
X120108133Y-88089664D01*
X120116116Y-88253484D01*
X120166517Y-88350255D01*
X120299019Y-88411584D01*
X120553301Y-88469077D01*
X120594967Y-88477436D01*
X121022131Y-88566061D01*
X121286305Y-88630404D01*
X121391464Y-88674392D01*
X121341586Y-88701952D01*
X121140645Y-88717014D01*
X120843602Y-88723031D01*
X120097404Y-88730667D01*
X120123935Y-89005834D01*
X120123935Y-89005834D01*
G37*
X120123935Y-89005834D02*
X120150467Y-89281000D01*
X121695633Y-89304077D01*
X123240800Y-89327153D01*
X123240800Y-88669138D01*
X122711633Y-88560574D01*
X122329465Y-88474371D01*
X122115319Y-88406769D01*
X122068961Y-88357306D01*
X122190158Y-88325520D01*
X122478674Y-88310949D01*
X122584633Y-88309908D01*
X123240800Y-88307334D01*
X123240800Y-87799334D01*
X120108133Y-87799334D01*
X120108133Y-88089664D01*
X120116116Y-88253484D01*
X120166517Y-88350255D01*
X120299019Y-88411584D01*
X120553301Y-88469077D01*
X120594967Y-88477436D01*
X121022131Y-88566061D01*
X121286305Y-88630404D01*
X121391464Y-88674392D01*
X121341586Y-88701952D01*
X121140645Y-88717014D01*
X120843602Y-88723031D01*
X120097404Y-88730667D01*
X120123935Y-89005834D01*
G36*
X120178783Y-87079876D02*
G01*
X120280577Y-87305961D01*
X120481116Y-87423799D01*
X120805666Y-87460429D01*
X120843982Y-87460667D01*
X121208800Y-87460667D01*
X121208800Y-87122000D01*
X121199829Y-86905164D01*
X121144437Y-86808801D01*
X120999907Y-86784091D01*
X120912467Y-86783334D01*
X120716599Y-86762068D01*
X120618693Y-86709778D01*
X120616133Y-86698667D01*
X120690543Y-86642625D01*
X120873429Y-86614702D01*
X120911404Y-86614000D01*
X121112981Y-86636817D01*
X121259742Y-86732188D01*
X121412770Y-86940495D01*
X121418168Y-86949026D01*
X121614519Y-87215571D01*
X121821750Y-87371710D01*
X122093467Y-87444376D01*
X122436467Y-87460667D01*
X122810341Y-87447298D01*
X123046714Y-87387623D01*
X123176568Y-87252292D01*
X123230883Y-87011955D01*
X123240800Y-86698667D01*
X123233417Y-86376492D01*
X123204523Y-86181606D01*
X123144001Y-86072349D01*
X123077033Y-86024312D01*
X122902516Y-85975131D01*
X122631076Y-85943331D01*
X122436922Y-85936667D01*
X121960578Y-85936667D01*
X121986856Y-86254167D01*
X122013892Y-86454151D01*
X122084739Y-86550212D01*
X122250306Y-86587647D01*
X122372967Y-86597702D01*
X122629398Y-86638084D01*
X122723198Y-86696248D01*
X122656568Y-86751189D01*
X122431708Y-86781901D01*
X122353521Y-86783334D01*
X122110870Y-86771049D01*
X121967645Y-86705899D01*
X121854258Y-86545441D01*
X121802911Y-86447498D01*
X121637226Y-86182178D01*
X121443111Y-86025695D01*
X121172584Y-85952494D01*
X120843733Y-85936667D01*
X120515156Y-85959639D01*
X120307994Y-86048115D01*
X120196229Y-86231440D01*
X120153842Y-86538954D01*
X120150467Y-86718505D01*
X120178783Y-87079876D01*
X120178783Y-87079876D01*
G37*
X120178783Y-87079876D02*
X120280577Y-87305961D01*
X120481116Y-87423799D01*
X120805666Y-87460429D01*
X120843982Y-87460667D01*
X121208800Y-87460667D01*
X121208800Y-87122000D01*
X121199829Y-86905164D01*
X121144437Y-86808801D01*
X120999907Y-86784091D01*
X120912467Y-86783334D01*
X120716599Y-86762068D01*
X120618693Y-86709778D01*
X120616133Y-86698667D01*
X120690543Y-86642625D01*
X120873429Y-86614702D01*
X120911404Y-86614000D01*
X121112981Y-86636817D01*
X121259742Y-86732188D01*
X121412770Y-86940495D01*
X121418168Y-86949026D01*
X121614519Y-87215571D01*
X121821750Y-87371710D01*
X122093467Y-87444376D01*
X122436467Y-87460667D01*
X122810341Y-87447298D01*
X123046714Y-87387623D01*
X123176568Y-87252292D01*
X123230883Y-87011955D01*
X123240800Y-86698667D01*
X123233417Y-86376492D01*
X123204523Y-86181606D01*
X123144001Y-86072349D01*
X123077033Y-86024312D01*
X122902516Y-85975131D01*
X122631076Y-85943331D01*
X122436922Y-85936667D01*
X121960578Y-85936667D01*
X121986856Y-86254167D01*
X122013892Y-86454151D01*
X122084739Y-86550212D01*
X122250306Y-86587647D01*
X122372967Y-86597702D01*
X122629398Y-86638084D01*
X122723198Y-86696248D01*
X122656568Y-86751189D01*
X122431708Y-86781901D01*
X122353521Y-86783334D01*
X122110870Y-86771049D01*
X121967645Y-86705899D01*
X121854258Y-86545441D01*
X121802911Y-86447498D01*
X121637226Y-86182178D01*
X121443111Y-86025695D01*
X121172584Y-85952494D01*
X120843733Y-85936667D01*
X120515156Y-85959639D01*
X120307994Y-86048115D01*
X120196229Y-86231440D01*
X120153842Y-86538954D01*
X120150467Y-86718505D01*
X120178783Y-87079876D01*
G36*
X123594318Y-92513925D02*
G01*
X123634267Y-92757874D01*
X123681067Y-92862400D01*
X123829712Y-92923746D01*
X124081178Y-92955974D01*
X124371476Y-92959085D01*
X124636617Y-92933079D01*
X124812609Y-92877955D01*
X124832533Y-92862400D01*
X124947747Y-92804395D01*
X125035733Y-92862400D01*
X125175307Y-92917813D01*
X125437684Y-92953813D01*
X125713066Y-92964000D01*
X126288800Y-92964000D01*
X126288800Y-92371334D01*
X125738467Y-92371334D01*
X125450884Y-92359371D01*
X125253990Y-92327681D01*
X125188133Y-92286667D01*
X125265891Y-92242423D01*
X125471873Y-92212132D01*
X125738467Y-92202000D01*
X126034072Y-92199046D01*
X126198690Y-92179040D01*
X126270665Y-92125268D01*
X126288343Y-92021015D01*
X126288800Y-91962111D01*
X126270667Y-91768203D01*
X126232355Y-91665778D01*
X126132231Y-91646248D01*
X125893429Y-91629646D01*
X125546596Y-91617250D01*
X125122379Y-91610338D01*
X124877689Y-91609334D01*
X124460412Y-91609334D01*
X124460412Y-92203755D01*
X124638754Y-92226206D01*
X124708355Y-92258445D01*
X124755538Y-92324213D01*
X124707374Y-92358083D01*
X124534622Y-92370228D01*
X124383800Y-92371334D01*
X124156580Y-92354517D01*
X124020282Y-92311970D01*
X124002800Y-92286667D01*
X124075843Y-92236649D01*
X124250577Y-92208124D01*
X124460412Y-92203755D01*
X124460412Y-91609334D01*
X123579467Y-91609334D01*
X123579467Y-92185067D01*
X123594318Y-92513925D01*
X123594318Y-92513925D01*
G37*
X123594318Y-92513925D02*
X123634267Y-92757874D01*
X123681067Y-92862400D01*
X123829712Y-92923746D01*
X124081178Y-92955974D01*
X124371476Y-92959085D01*
X124636617Y-92933079D01*
X124812609Y-92877955D01*
X124832533Y-92862400D01*
X124947747Y-92804395D01*
X125035733Y-92862400D01*
X125175307Y-92917813D01*
X125437684Y-92953813D01*
X125713066Y-92964000D01*
X126288800Y-92964000D01*
X126288800Y-92371334D01*
X125738467Y-92371334D01*
X125450884Y-92359371D01*
X125253990Y-92327681D01*
X125188133Y-92286667D01*
X125265891Y-92242423D01*
X125471873Y-92212132D01*
X125738467Y-92202000D01*
X126034072Y-92199046D01*
X126198690Y-92179040D01*
X126270665Y-92125268D01*
X126288343Y-92021015D01*
X126288800Y-91962111D01*
X126270667Y-91768203D01*
X126232355Y-91665778D01*
X126132231Y-91646248D01*
X125893429Y-91629646D01*
X125546596Y-91617250D01*
X125122379Y-91610338D01*
X124877689Y-91609334D01*
X124460412Y-91609334D01*
X124460412Y-92203755D01*
X124638754Y-92226206D01*
X124708355Y-92258445D01*
X124755538Y-92324213D01*
X124707374Y-92358083D01*
X124534622Y-92370228D01*
X124383800Y-92371334D01*
X124156580Y-92354517D01*
X124020282Y-92311970D01*
X124002800Y-92286667D01*
X124075843Y-92236649D01*
X124250577Y-92208124D01*
X124460412Y-92203755D01*
X124460412Y-91609334D01*
X123579467Y-91609334D01*
X123579467Y-92185067D01*
X123594318Y-92513925D01*
G36*
X126288800Y-91355334D02*
G01*
X126288800Y-90762667D01*
X123579467Y-90762667D01*
X123579467Y-91355334D01*
X126288800Y-91355334D01*
X126288800Y-91355334D01*
G37*
X126288800Y-91355334D02*
X126288800Y-90762667D01*
X123579467Y-90762667D01*
X123579467Y-91355334D01*
X126288800Y-91355334D01*
G36*
X123603582Y-90065770D02*
G01*
X123675488Y-90168520D01*
X123688817Y-90170000D01*
X123826163Y-90180923D01*
X124090510Y-90210190D01*
X124441175Y-90252551D01*
X124837479Y-90302756D01*
X125238740Y-90355554D01*
X125604277Y-90405695D01*
X125893408Y-90447929D01*
X126061930Y-90476281D01*
X126222242Y-90496152D01*
X126280255Y-90436067D01*
X126274695Y-90253075D01*
X126273597Y-90241537D01*
X126234226Y-90044488D01*
X126129878Y-89958594D01*
X125966160Y-89931419D01*
X125769209Y-89880082D01*
X125723949Y-89799505D01*
X125823794Y-89720630D01*
X126020153Y-89677802D01*
X126206461Y-89639451D01*
X126278394Y-89536875D01*
X126288800Y-89377267D01*
X126288800Y-89103263D01*
X124934133Y-89269496D01*
X124870633Y-89277288D01*
X124870633Y-89753351D01*
X125105051Y-89762224D01*
X125249998Y-89792302D01*
X125272800Y-89814332D01*
X125198629Y-89850326D01*
X125014523Y-89855211D01*
X124955300Y-89850529D01*
X124678385Y-89816796D01*
X124564295Y-89787987D01*
X124614981Y-89766341D01*
X124832391Y-89754097D01*
X124870633Y-89753351D01*
X124870633Y-89277288D01*
X123579467Y-89435729D01*
X123579467Y-89802864D01*
X123603582Y-90065770D01*
X123603582Y-90065770D01*
G37*
X123603582Y-90065770D02*
X123675488Y-90168520D01*
X123688817Y-90170000D01*
X123826163Y-90180923D01*
X124090510Y-90210190D01*
X124441175Y-90252551D01*
X124837479Y-90302756D01*
X125238740Y-90355554D01*
X125604277Y-90405695D01*
X125893408Y-90447929D01*
X126061930Y-90476281D01*
X126222242Y-90496152D01*
X126280255Y-90436067D01*
X126274695Y-90253075D01*
X126273597Y-90241537D01*
X126234226Y-90044488D01*
X126129878Y-89958594D01*
X125966160Y-89931419D01*
X125769209Y-89880082D01*
X125723949Y-89799505D01*
X125823794Y-89720630D01*
X126020153Y-89677802D01*
X126206461Y-89639451D01*
X126278394Y-89536875D01*
X126288800Y-89377267D01*
X126288800Y-89103263D01*
X124934133Y-89269496D01*
X124870633Y-89277288D01*
X124870633Y-89753351D01*
X125105051Y-89762224D01*
X125249998Y-89792302D01*
X125272800Y-89814332D01*
X125198629Y-89850326D01*
X125014523Y-89855211D01*
X124955300Y-89850529D01*
X124678385Y-89816796D01*
X124564295Y-89787987D01*
X124614981Y-89766341D01*
X124832391Y-89754097D01*
X124870633Y-89753351D01*
X124870633Y-89277288D01*
X123579467Y-89435729D01*
X123579467Y-89802864D01*
X123603582Y-90065770D01*
G36*
X123591450Y-87934698D02*
G01*
X123653829Y-88021710D01*
X123806245Y-88082634D01*
X124066300Y-88141290D01*
X124404971Y-88212567D01*
X124581000Y-88257571D01*
X124597866Y-88282853D01*
X124459049Y-88294962D01*
X124168029Y-88300448D01*
X124150967Y-88300649D01*
X123579467Y-88307334D01*
X123579467Y-88815334D01*
X126288800Y-88815334D01*
X126288800Y-88570392D01*
X126273488Y-88414354D01*
X126204155Y-88314093D01*
X126045701Y-88247547D01*
X125763028Y-88192652D01*
X125663583Y-88177375D01*
X125371408Y-88118339D01*
X125245571Y-88059673D01*
X125283264Y-88009757D01*
X125481682Y-87976972D01*
X125733470Y-87968667D01*
X126030959Y-87965034D01*
X126197221Y-87944456D01*
X126270344Y-87892416D01*
X126288417Y-87794397D01*
X126288800Y-87757000D01*
X126288800Y-87545334D01*
X123579467Y-87545334D01*
X123579467Y-87793262D01*
X123591450Y-87934698D01*
X123591450Y-87934698D01*
G37*
X123591450Y-87934698D02*
X123653829Y-88021710D01*
X123806245Y-88082634D01*
X124066300Y-88141290D01*
X124404971Y-88212567D01*
X124581000Y-88257571D01*
X124597866Y-88282853D01*
X124459049Y-88294962D01*
X124168029Y-88300448D01*
X124150967Y-88300649D01*
X123579467Y-88307334D01*
X123579467Y-88815334D01*
X126288800Y-88815334D01*
X126288800Y-88570392D01*
X126273488Y-88414354D01*
X126204155Y-88314093D01*
X126045701Y-88247547D01*
X125763028Y-88192652D01*
X125663583Y-88177375D01*
X125371408Y-88118339D01*
X125245571Y-88059673D01*
X125283264Y-88009757D01*
X125481682Y-87976972D01*
X125733470Y-87968667D01*
X126030959Y-87965034D01*
X126197221Y-87944456D01*
X126270344Y-87892416D01*
X126288417Y-87794397D01*
X126288800Y-87757000D01*
X126288800Y-87545334D01*
X123579467Y-87545334D01*
X123579467Y-87793262D01*
X123591450Y-87934698D01*
G36*
X123598327Y-86840364D02*
G01*
X123646393Y-87044340D01*
X123681067Y-87105067D01*
X123810542Y-87152970D01*
X124091603Y-87185442D01*
X124530558Y-87202990D01*
X124948088Y-87206667D01*
X125416722Y-87204812D01*
X125744272Y-87196789D01*
X125958968Y-87178906D01*
X126089041Y-87147476D01*
X126162721Y-87098808D01*
X126201154Y-87042900D01*
X126269815Y-86791119D01*
X126274682Y-86469626D01*
X126215724Y-86165580D01*
X126201495Y-86127167D01*
X126163893Y-86051399D01*
X126103817Y-85998951D01*
X125993216Y-85965540D01*
X125804040Y-85946883D01*
X125508238Y-85938698D01*
X125315224Y-85937803D01*
X125315224Y-86455322D01*
X125631255Y-86469315D01*
X125803376Y-86506427D01*
X125843757Y-86568643D01*
X125808660Y-86620007D01*
X125687736Y-86656305D01*
X125434267Y-86678526D01*
X125084640Y-86684225D01*
X124905071Y-86680731D01*
X124470529Y-86657037D01*
X124195355Y-86620575D01*
X124081250Y-86577336D01*
X124129915Y-86533316D01*
X124343051Y-86494506D01*
X124722360Y-86466901D01*
X124843115Y-86462460D01*
X125315224Y-86455322D01*
X125315224Y-85937803D01*
X125077760Y-85936701D01*
X124953795Y-85936667D01*
X124396227Y-85943713D01*
X124000951Y-85965194D01*
X123761497Y-86001627D01*
X123681067Y-86038267D01*
X123622281Y-86177207D01*
X123585596Y-86418172D01*
X123579467Y-86571667D01*
X123598327Y-86840364D01*
X123598327Y-86840364D01*
G37*
X123598327Y-86840364D02*
X123646393Y-87044340D01*
X123681067Y-87105067D01*
X123810542Y-87152970D01*
X124091603Y-87185442D01*
X124530558Y-87202990D01*
X124948088Y-87206667D01*
X125416722Y-87204812D01*
X125744272Y-87196789D01*
X125958968Y-87178906D01*
X126089041Y-87147476D01*
X126162721Y-87098808D01*
X126201154Y-87042900D01*
X126269815Y-86791119D01*
X126274682Y-86469626D01*
X126215724Y-86165580D01*
X126201495Y-86127167D01*
X126163893Y-86051399D01*
X126103817Y-85998951D01*
X125993216Y-85965540D01*
X125804040Y-85946883D01*
X125508238Y-85938698D01*
X125315224Y-85937803D01*
X125315224Y-86455322D01*
X125631255Y-86469315D01*
X125803376Y-86506427D01*
X125843757Y-86568643D01*
X125808660Y-86620007D01*
X125687736Y-86656305D01*
X125434267Y-86678526D01*
X125084640Y-86684225D01*
X124905071Y-86680731D01*
X124470529Y-86657037D01*
X124195355Y-86620575D01*
X124081250Y-86577336D01*
X124129915Y-86533316D01*
X124343051Y-86494506D01*
X124722360Y-86466901D01*
X124843115Y-86462460D01*
X125315224Y-86455322D01*
X125315224Y-85937803D01*
X125077760Y-85936701D01*
X124953795Y-85936667D01*
X124396227Y-85943713D01*
X124000951Y-85965194D01*
X123761497Y-86001627D01*
X123681067Y-86038267D01*
X123622281Y-86177207D01*
X123585596Y-86418172D01*
X123579467Y-86571667D01*
X123598327Y-86840364D01*
G36*
X127029633Y-92961518D02*
G01*
X127277943Y-92948364D01*
X127439281Y-92911914D01*
X127474133Y-92879334D01*
X127400309Y-92820888D01*
X127221355Y-92794762D01*
X127208715Y-92794667D01*
X126943297Y-92794667D01*
X127178224Y-92609873D01*
X127413152Y-92425079D01*
X127168476Y-92229294D01*
X126923800Y-92033508D01*
X127198967Y-92033087D01*
X127386264Y-92010022D01*
X127473348Y-91954404D01*
X127474133Y-91948000D01*
X127398520Y-91897228D01*
X127207474Y-91867007D01*
X127098130Y-91863334D01*
X126812299Y-91884290D01*
X126687913Y-91950797D01*
X126721898Y-92068311D01*
X126892714Y-92227981D01*
X127159584Y-92436838D01*
X126872359Y-92697937D01*
X126585133Y-92959036D01*
X127029633Y-92961518D01*
X127029633Y-92961518D01*
G37*
X127029633Y-92961518D02*
X127277943Y-92948364D01*
X127439281Y-92911914D01*
X127474133Y-92879334D01*
X127400309Y-92820888D01*
X127221355Y-92794762D01*
X127208715Y-92794667D01*
X126943297Y-92794667D01*
X127178224Y-92609873D01*
X127413152Y-92425079D01*
X127168476Y-92229294D01*
X126923800Y-92033508D01*
X127198967Y-92033087D01*
X127386264Y-92010022D01*
X127473348Y-91954404D01*
X127474133Y-91948000D01*
X127398520Y-91897228D01*
X127207474Y-91867007D01*
X127098130Y-91863334D01*
X126812299Y-91884290D01*
X126687913Y-91950797D01*
X126721898Y-92068311D01*
X126892714Y-92227981D01*
X127159584Y-92436838D01*
X126872359Y-92697937D01*
X126585133Y-92959036D01*
X127029633Y-92961518D01*
G36*
X127071967Y-91508139D02*
G01*
X127474133Y-91533945D01*
X127474133Y-90499389D01*
X127071967Y-90525195D01*
X127050800Y-90526553D01*
X127050800Y-90678000D01*
X127213667Y-90691374D01*
X127286068Y-90763846D01*
X127304399Y-90943945D01*
X127304800Y-91016667D01*
X127294770Y-91233822D01*
X127240415Y-91330357D01*
X127105341Y-91354799D01*
X127050800Y-91355334D01*
X126887933Y-91341960D01*
X126815532Y-91269487D01*
X126797201Y-91089389D01*
X126796800Y-91016667D01*
X126806830Y-90799511D01*
X126861185Y-90702976D01*
X126996258Y-90678534D01*
X127050800Y-90678000D01*
X127050800Y-90526553D01*
X126669800Y-90551000D01*
X126669800Y-91482334D01*
X127071967Y-91508139D01*
X127071967Y-91508139D01*
G37*
X127071967Y-91508139D02*
X127474133Y-91533945D01*
X127474133Y-90499389D01*
X127071967Y-90525195D01*
X127050800Y-90526553D01*
X127050800Y-90678000D01*
X127213667Y-90691374D01*
X127286068Y-90763846D01*
X127304399Y-90943945D01*
X127304800Y-91016667D01*
X127294770Y-91233822D01*
X127240415Y-91330357D01*
X127105341Y-91354799D01*
X127050800Y-91355334D01*
X126887933Y-91341960D01*
X126815532Y-91269487D01*
X126797201Y-91089389D01*
X126796800Y-91016667D01*
X126806830Y-90799511D01*
X126861185Y-90702976D01*
X126996258Y-90678534D01*
X127050800Y-90678000D01*
X127050800Y-90526553D01*
X126669800Y-90551000D01*
X126669800Y-91482334D01*
X127071967Y-91508139D01*
G36*
X126698729Y-90047978D02*
G01*
X126804225Y-90163510D01*
X126840746Y-90170000D01*
X126952379Y-90123772D01*
X126966133Y-90085334D01*
X126901704Y-90003127D01*
X126881467Y-90000667D01*
X126825504Y-89926238D01*
X126797531Y-89743223D01*
X126796800Y-89704334D01*
X126810959Y-89505239D01*
X126882779Y-89423578D01*
X127050800Y-89408000D01*
X127221453Y-89424520D01*
X127291447Y-89508310D01*
X127304800Y-89704334D01*
X127282285Y-89900182D01*
X127226920Y-89998100D01*
X127215136Y-90000667D01*
X127164570Y-90052537D01*
X127177800Y-90085334D01*
X127300302Y-90163238D01*
X127352130Y-90170000D01*
X127426269Y-90123391D01*
X127464388Y-89964174D01*
X127474133Y-89699695D01*
X127474133Y-89229389D01*
X127071967Y-89255195D01*
X126827097Y-89279763D01*
X126703674Y-89332164D01*
X126653823Y-89442333D01*
X126642022Y-89524064D01*
X126640282Y-89820595D01*
X126698729Y-90047978D01*
X126698729Y-90047978D01*
G37*
X126698729Y-90047978D02*
X126804225Y-90163510D01*
X126840746Y-90170000D01*
X126952379Y-90123772D01*
X126966133Y-90085334D01*
X126901704Y-90003127D01*
X126881467Y-90000667D01*
X126825504Y-89926238D01*
X126797531Y-89743223D01*
X126796800Y-89704334D01*
X126810959Y-89505239D01*
X126882779Y-89423578D01*
X127050800Y-89408000D01*
X127221453Y-89424520D01*
X127291447Y-89508310D01*
X127304800Y-89704334D01*
X127282285Y-89900182D01*
X127226920Y-89998100D01*
X127215136Y-90000667D01*
X127164570Y-90052537D01*
X127177800Y-90085334D01*
X127300302Y-90163238D01*
X127352130Y-90170000D01*
X127426269Y-90123391D01*
X127464388Y-89964174D01*
X127474133Y-89699695D01*
X127474133Y-89229389D01*
X127071967Y-89255195D01*
X126827097Y-89279763D01*
X126703674Y-89332164D01*
X126653823Y-89442333D01*
X126642022Y-89524064D01*
X126640282Y-89820595D01*
X126698729Y-90047978D01*
G36*
X127287906Y-88800582D02*
G01*
X127347133Y-88815334D01*
X127459382Y-88747561D01*
X127474133Y-88688334D01*
X127406360Y-88576085D01*
X127347133Y-88561334D01*
X127234885Y-88629106D01*
X127220133Y-88688334D01*
X127287906Y-88800582D01*
X127287906Y-88800582D01*
G37*
X127287906Y-88800582D02*
X127347133Y-88815334D01*
X127459382Y-88747561D01*
X127474133Y-88688334D01*
X127406360Y-88576085D01*
X127347133Y-88561334D01*
X127234885Y-88629106D01*
X127220133Y-88688334D01*
X127287906Y-88800582D01*
G36*
X118748392Y-99811621D02*
G01*
X118757674Y-99829862D01*
X118910077Y-99967194D01*
X119106664Y-99971444D01*
X119261467Y-99864334D01*
X119419538Y-99770395D01*
X119610500Y-99737334D01*
X119760387Y-99749317D01*
X119831384Y-99815849D01*
X119852827Y-99982805D01*
X119854133Y-100118334D01*
X119854133Y-100499334D01*
X126627467Y-100499334D01*
X126627467Y-97783094D01*
X127558800Y-95638558D01*
X127840717Y-94988777D01*
X128061414Y-94477615D01*
X128227374Y-94088484D01*
X128345081Y-93804795D01*
X128421019Y-93609957D01*
X128461674Y-93487383D01*
X128473529Y-93420482D01*
X128463068Y-93392667D01*
X128438742Y-93387334D01*
X128352838Y-93432979D01*
X128263203Y-93490139D01*
X128263203Y-93641334D01*
X128241111Y-93715142D01*
X128158535Y-93922756D01*
X128024247Y-94243460D01*
X127847022Y-94656537D01*
X127635632Y-95141271D01*
X127447475Y-95567500D01*
X126592808Y-97493667D01*
X126546637Y-98933000D01*
X126500467Y-100372334D01*
X123261967Y-100394506D01*
X120023467Y-100416679D01*
X120023467Y-93833683D01*
X120416284Y-93779842D01*
X120594441Y-93766926D01*
X120918730Y-93755122D01*
X121365951Y-93744813D01*
X121912903Y-93736383D01*
X122536386Y-93730214D01*
X123213200Y-93726691D01*
X123675950Y-93726000D01*
X126542800Y-93726000D01*
X126542800Y-94177556D01*
X126552245Y-94440568D01*
X126576479Y-94628629D01*
X126597168Y-94683480D01*
X126683792Y-94659727D01*
X126877918Y-94554133D01*
X127149869Y-94384131D01*
X127437900Y-94189591D01*
X127754036Y-93971434D01*
X128016676Y-93794441D01*
X128196495Y-93678094D01*
X128263203Y-93641334D01*
X128263203Y-93490139D01*
X128158505Y-93556906D01*
X127885556Y-93739602D01*
X127598010Y-93937667D01*
X127280217Y-94156445D01*
X127014677Y-94334007D01*
X126831063Y-94450857D01*
X126760401Y-94488000D01*
X126732859Y-94411805D01*
X126715384Y-94217000D01*
X126712133Y-94064667D01*
X126712133Y-93641334D01*
X119854133Y-93641334D01*
X119854133Y-93980000D01*
X119845162Y-94196836D01*
X119789770Y-94293200D01*
X119645241Y-94317910D01*
X119557800Y-94318667D01*
X119361900Y-94299669D01*
X119264014Y-94252959D01*
X119261466Y-94243059D01*
X119190782Y-94147485D01*
X119032270Y-94099197D01*
X119007467Y-94102100D01*
X119007467Y-94234000D01*
X119146427Y-94276852D01*
X119160682Y-94382167D01*
X119077196Y-94508126D01*
X119007467Y-94530334D01*
X118887918Y-94459949D01*
X118854251Y-94382167D01*
X118883703Y-94262155D01*
X119007467Y-94234000D01*
X119007467Y-94102100D01*
X118887013Y-94116204D01*
X118739339Y-94244513D01*
X118729890Y-94439168D01*
X118826290Y-94619174D01*
X118984238Y-94819973D01*
X119166049Y-94626444D01*
X119374375Y-94481116D01*
X119600997Y-94470067D01*
X119854133Y-94507219D01*
X119854133Y-99652667D01*
X119626757Y-99652667D01*
X119403275Y-99595274D01*
X119196231Y-99462167D01*
X119038549Y-99314304D01*
X119038549Y-99506875D01*
X119089444Y-99524005D01*
X119159822Y-99647723D01*
X119127169Y-99800668D01*
X119028678Y-99885525D01*
X118919042Y-99855640D01*
X118858851Y-99732617D01*
X118876099Y-99591284D01*
X118904180Y-99552753D01*
X119038549Y-99506875D01*
X119038549Y-99314304D01*
X118993082Y-99271667D01*
X118832170Y-99470029D01*
X118725885Y-99652168D01*
X118748392Y-99811621D01*
X118748392Y-99811621D01*
G37*
X118748392Y-99811621D02*
X118757674Y-99829862D01*
X118910077Y-99967194D01*
X119106664Y-99971444D01*
X119261467Y-99864334D01*
X119419538Y-99770395D01*
X119610500Y-99737334D01*
X119760387Y-99749317D01*
X119831384Y-99815849D01*
X119852827Y-99982805D01*
X119854133Y-100118334D01*
X119854133Y-100499334D01*
X126627467Y-100499334D01*
X126627467Y-97783094D01*
X127558800Y-95638558D01*
X127840717Y-94988777D01*
X128061414Y-94477615D01*
X128227374Y-94088484D01*
X128345081Y-93804795D01*
X128421019Y-93609957D01*
X128461674Y-93487383D01*
X128473529Y-93420482D01*
X128463068Y-93392667D01*
X128438742Y-93387334D01*
X128352838Y-93432979D01*
X128263203Y-93490139D01*
X128263203Y-93641334D01*
X128241111Y-93715142D01*
X128158535Y-93922756D01*
X128024247Y-94243460D01*
X127847022Y-94656537D01*
X127635632Y-95141271D01*
X127447475Y-95567500D01*
X126592808Y-97493667D01*
X126546637Y-98933000D01*
X126500467Y-100372334D01*
X123261967Y-100394506D01*
X120023467Y-100416679D01*
X120023467Y-93833683D01*
X120416284Y-93779842D01*
X120594441Y-93766926D01*
X120918730Y-93755122D01*
X121365951Y-93744813D01*
X121912903Y-93736383D01*
X122536386Y-93730214D01*
X123213200Y-93726691D01*
X123675950Y-93726000D01*
X126542800Y-93726000D01*
X126542800Y-94177556D01*
X126552245Y-94440568D01*
X126576479Y-94628629D01*
X126597168Y-94683480D01*
X126683792Y-94659727D01*
X126877918Y-94554133D01*
X127149869Y-94384131D01*
X127437900Y-94189591D01*
X127754036Y-93971434D01*
X128016676Y-93794441D01*
X128196495Y-93678094D01*
X128263203Y-93641334D01*
X128263203Y-93490139D01*
X128158505Y-93556906D01*
X127885556Y-93739602D01*
X127598010Y-93937667D01*
X127280217Y-94156445D01*
X127014677Y-94334007D01*
X126831063Y-94450857D01*
X126760401Y-94488000D01*
X126732859Y-94411805D01*
X126715384Y-94217000D01*
X126712133Y-94064667D01*
X126712133Y-93641334D01*
X119854133Y-93641334D01*
X119854133Y-93980000D01*
X119845162Y-94196836D01*
X119789770Y-94293200D01*
X119645241Y-94317910D01*
X119557800Y-94318667D01*
X119361900Y-94299669D01*
X119264014Y-94252959D01*
X119261466Y-94243059D01*
X119190782Y-94147485D01*
X119032270Y-94099197D01*
X119007467Y-94102100D01*
X119007467Y-94234000D01*
X119146427Y-94276852D01*
X119160682Y-94382167D01*
X119077196Y-94508126D01*
X119007467Y-94530334D01*
X118887918Y-94459949D01*
X118854251Y-94382167D01*
X118883703Y-94262155D01*
X119007467Y-94234000D01*
X119007467Y-94102100D01*
X118887013Y-94116204D01*
X118739339Y-94244513D01*
X118729890Y-94439168D01*
X118826290Y-94619174D01*
X118984238Y-94819973D01*
X119166049Y-94626444D01*
X119374375Y-94481116D01*
X119600997Y-94470067D01*
X119854133Y-94507219D01*
X119854133Y-99652667D01*
X119626757Y-99652667D01*
X119403275Y-99595274D01*
X119196231Y-99462167D01*
X119038549Y-99314304D01*
X119038549Y-99506875D01*
X119089444Y-99524005D01*
X119159822Y-99647723D01*
X119127169Y-99800668D01*
X119028678Y-99885525D01*
X118919042Y-99855640D01*
X118858851Y-99732617D01*
X118876099Y-99591284D01*
X118904180Y-99552753D01*
X119038549Y-99506875D01*
X119038549Y-99314304D01*
X118993082Y-99271667D01*
X118832170Y-99470029D01*
X118725885Y-99652168D01*
X118748392Y-99811621D01*
M02*
